%TF.GenerationSoftware,KiCad,Pcbnew,10.0.3*%
%TF.CreationDate,2026-07-03T22:31:39+05:30*%
%TF.ProjectId,MCU data logger,4d435520-6461-4746-9120-6c6f67676572,version1*%
%TF.SameCoordinates,Original*%
%TF.FileFunction,Soldermask,Top*%
%TF.FilePolarity,Negative*%
%FSLAX46Y46*%
G04 Gerber Fmt 4.6, Leading zero omitted, Abs format (unit mm)*
G04 Created by KiCad (PCBNEW 10.0.3) date 2026-07-03 22:31:39*
%MOMM*%
%LPD*%
G01*
G04 APERTURE LIST*
G04 Aperture macros list*
%AMRoundRect*
0 Rectangle with rounded corners*
0 $1 Rounding radius*
0 $2 $3 $4 $5 $6 $7 $8 $9 X,Y pos of 4 corners*
0 Add a 4 corners polygon primitive as box body*
4,1,4,$2,$3,$4,$5,$6,$7,$8,$9,$2,$3,0*
0 Add four circle primitives for the rounded corners*
1,1,$1+$1,$2,$3*
1,1,$1+$1,$4,$5*
1,1,$1+$1,$6,$7*
1,1,$1+$1,$8,$9*
0 Add four rect primitives between the rounded corners*
20,1,$1+$1,$2,$3,$4,$5,0*
20,1,$1+$1,$4,$5,$6,$7,0*
20,1,$1+$1,$6,$7,$8,$9,0*
20,1,$1+$1,$8,$9,$2,$3,0*%
G04 Aperture macros list end*
%ADD10C,2.100000*%
%ADD11RoundRect,0.250000X0.450000X-0.262500X0.450000X0.262500X-0.450000X0.262500X-0.450000X-0.262500X0*%
%ADD12RoundRect,0.250001X1.499999X0.949999X-1.499999X0.949999X-1.499999X-0.949999X1.499999X-0.949999X0*%
%ADD13RoundRect,0.243750X0.243750X0.456250X-0.243750X0.456250X-0.243750X-0.456250X0.243750X-0.456250X0*%
%ADD14RoundRect,0.243750X0.456250X-0.243750X0.456250X0.243750X-0.456250X0.243750X-0.456250X-0.243750X0*%
%ADD15R,1.700000X1.700000*%
%ADD16C,1.700000*%
%ADD17RoundRect,0.102000X-0.750000X-0.275000X0.750000X-0.275000X0.750000X0.275000X-0.750000X0.275000X0*%
%ADD18RoundRect,0.102000X-0.275000X-0.750000X0.275000X-0.750000X0.275000X0.750000X-0.275000X0.750000X0*%
%ADD19RoundRect,0.250000X0.475000X-0.250000X0.475000X0.250000X-0.475000X0.250000X-0.475000X-0.250000X0*%
%ADD20RoundRect,0.099250X-0.987750X-0.297750X0.987750X-0.297750X0.987750X0.297750X-0.987750X0.297750X0*%
%ADD21RoundRect,0.162500X-0.650000X-0.162500X0.650000X-0.162500X0.650000X0.162500X-0.650000X0.162500X0*%
%ADD22RoundRect,0.250001X0.949999X-1.499999X0.949999X1.499999X-0.949999X1.499999X-0.949999X-1.499999X0*%
%ADD23RoundRect,0.250000X-0.250000X-0.475000X0.250000X-0.475000X0.250000X0.475000X-0.250000X0.475000X0*%
%ADD24RoundRect,0.250000X-0.262500X-0.450000X0.262500X-0.450000X0.262500X0.450000X-0.262500X0.450000X0*%
G04 APERTURE END LIST*
D10*
%TO.C,H2*%
X82400000Y-92400000D03*
%TD*%
D11*
%TO.C,R2*%
X121100000Y-80825000D03*
X121100000Y-79000000D03*
%TD*%
D12*
%TO.C,Y2*%
X117200000Y-84500000D03*
X112000000Y-84500000D03*
%TD*%
D13*
%TO.C,D1*%
X120600000Y-65400000D03*
X118725000Y-65400000D03*
%TD*%
D14*
%TO.C,D2*%
X85900000Y-85537500D03*
X85900000Y-83662500D03*
%TD*%
D11*
%TO.C,R4*%
X121000000Y-70425000D03*
X121000000Y-68600000D03*
%TD*%
D15*
%TO.C,BT1*%
X86300000Y-66825000D03*
D16*
X86300000Y-69365000D03*
%TD*%
D17*
%TO.C,U1*%
X108000000Y-72900000D03*
X108000000Y-73700000D03*
X108000000Y-74500000D03*
X108000000Y-75300000D03*
X108000000Y-76100000D03*
X108000000Y-76900000D03*
X108000000Y-77700000D03*
X108000000Y-78500000D03*
D18*
X109500000Y-80000000D03*
X110300000Y-80000000D03*
X111100000Y-80000000D03*
X111900000Y-80000000D03*
X112700000Y-80000000D03*
X113500000Y-80000000D03*
X114300000Y-80000000D03*
X115100000Y-80000000D03*
D17*
X116600000Y-78500000D03*
X116600000Y-77700000D03*
X116600000Y-76900000D03*
X116600000Y-76100000D03*
X116600000Y-75300000D03*
X116600000Y-74500000D03*
X116600000Y-73700000D03*
X116600000Y-72900000D03*
D18*
X115100000Y-71400000D03*
X114300000Y-71400000D03*
X113500000Y-71400000D03*
X112700000Y-71400000D03*
X111900000Y-71400000D03*
X111100000Y-71400000D03*
X110300000Y-71400000D03*
X109500000Y-71400000D03*
%TD*%
D15*
%TO.C,J4*%
X125500000Y-69700000D03*
D16*
X128040000Y-69700000D03*
X125500000Y-72240000D03*
X128040000Y-72240000D03*
X125500000Y-74780000D03*
X128040000Y-74780000D03*
%TD*%
D19*
%TO.C,C3*%
X107300000Y-84850000D03*
X107300000Y-82950000D03*
%TD*%
D20*
%TO.C,U2*%
X92725000Y-80695000D03*
X92725000Y-81965000D03*
X92725000Y-83235000D03*
X92725000Y-84505000D03*
X97675000Y-84505000D03*
X97675000Y-83235000D03*
X97675000Y-81965000D03*
X97675000Y-80695000D03*
%TD*%
D15*
%TO.C,J2*%
X112900000Y-89300000D03*
D16*
X115440000Y-89300000D03*
X117980000Y-89300000D03*
X120520000Y-89300000D03*
%TD*%
D21*
%TO.C,U4*%
X91412500Y-72495000D03*
X91412500Y-73765000D03*
X91412500Y-75035000D03*
X91412500Y-76305000D03*
X98587500Y-76305000D03*
X98587500Y-75035000D03*
X98587500Y-73765000D03*
X98587500Y-72495000D03*
%TD*%
D15*
%TO.C,J3*%
X87900000Y-89600000D03*
D16*
X90440000Y-89600000D03*
X92980000Y-89600000D03*
X95520000Y-89600000D03*
X98060000Y-89600000D03*
X100600000Y-89600000D03*
X103140000Y-89600000D03*
X105680000Y-89600000D03*
X108220000Y-89600000D03*
%TD*%
D11*
%TO.C,R3*%
X121100000Y-75525000D03*
X121100000Y-73700000D03*
%TD*%
%TO.C,R7*%
X89800000Y-85500000D03*
X89800000Y-83675000D03*
%TD*%
D22*
%TO.C,Y1*%
X86800000Y-79800000D03*
X86800000Y-74600000D03*
%TD*%
D23*
%TO.C,C4*%
X108100000Y-65300000D03*
X110000000Y-65300000D03*
%TD*%
D19*
%TO.C,C1*%
X102300000Y-71850000D03*
X102300000Y-69950000D03*
%TD*%
D23*
%TO.C,C2*%
X103200000Y-65400000D03*
X105100000Y-65400000D03*
%TD*%
D11*
%TO.C,R6*%
X102300000Y-80025000D03*
X102300000Y-78200000D03*
%TD*%
D19*
%TO.C,C5*%
X102300000Y-75800000D03*
X102300000Y-73900000D03*
%TD*%
D21*
%TO.C,U3*%
X91612500Y-64995000D03*
X91612500Y-66265000D03*
X91612500Y-67535000D03*
X91612500Y-68805000D03*
X98787500Y-68805000D03*
X98787500Y-67535000D03*
X98787500Y-66265000D03*
X98787500Y-64995000D03*
%TD*%
D24*
%TO.C,R5*%
X113387500Y-65300000D03*
X115212500Y-65300000D03*
%TD*%
D15*
%TO.C,J1*%
X126400000Y-80600000D03*
D16*
X126400000Y-83140000D03*
X126400000Y-85680000D03*
X126400000Y-88220000D03*
%TD*%
D10*
%TO.C,H3*%
X129000000Y-92600000D03*
%TD*%
%TO.C,H1*%
X82400000Y-62900000D03*
%TD*%
%TO.C,H4*%
X129200000Y-63300000D03*
%TD*%
D11*
%TO.C,R1*%
X102300000Y-84112500D03*
X102300000Y-82287500D03*
%TD*%
M02*
