%TF.GenerationSoftware,KiCad,Pcbnew,10.0.3*%
%TF.CreationDate,2026-07-03T22:31:38+05:30*%
%TF.ProjectId,MCU data logger,4d435520-6461-4746-9120-6c6f67676572,version1*%
%TF.SameCoordinates,Original*%
%TF.FileFunction,Copper,L2,Inr*%
%TF.FilePolarity,Positive*%
%FSLAX46Y46*%
G04 Gerber Fmt 4.6, Leading zero omitted, Abs format (unit mm)*
G04 Created by KiCad (PCBNEW 10.0.3) date 2026-07-03 22:31:38*
%MOMM*%
%LPD*%
G01*
G04 APERTURE LIST*
%TA.AperFunction,ComponentPad*%
%ADD10R,1.700000X1.700000*%
%TD*%
%TA.AperFunction,ComponentPad*%
%ADD11C,1.700000*%
%TD*%
%TA.AperFunction,ViaPad*%
%ADD12C,0.600000*%
%TD*%
G04 APERTURE END LIST*
D10*
%TO.N,VCC*%
%TO.C,BT1*%
X86300000Y-66825000D03*
D11*
%TO.N,GND*%
X86300000Y-69365000D03*
%TD*%
D10*
%TO.N,/MISO*%
%TO.C,J4*%
X125500000Y-69700000D03*
D11*
%TO.N,VCC*%
X128040000Y-69700000D03*
%TO.N,/sck*%
X125500000Y-72240000D03*
%TO.N,/MOSI*%
X128040000Y-72240000D03*
%TO.N,/RESET*%
X125500000Y-74780000D03*
%TO.N,GND*%
X128040000Y-74780000D03*
%TD*%
D10*
%TO.N,GND*%
%TO.C,J2*%
X112900000Y-89300000D03*
D11*
%TO.N,VCC*%
X115440000Y-89300000D03*
%TO.N,/RX*%
X117980000Y-89300000D03*
%TO.N,/TX*%
X120520000Y-89300000D03*
%TD*%
D10*
%TO.N,/D2*%
%TO.C,J3*%
X87900000Y-89600000D03*
D11*
%TO.N,/D3*%
X90440000Y-89600000D03*
%TO.N,/D4*%
X92980000Y-89600000D03*
%TO.N,/D5*%
X95520000Y-89600000D03*
%TO.N,/D6*%
X98060000Y-89600000D03*
%TO.N,/D7*%
X100600000Y-89600000D03*
%TO.N,/D8*%
X103140000Y-89600000D03*
%TO.N,GND*%
X105680000Y-89600000D03*
%TO.N,VCC*%
X108220000Y-89600000D03*
%TD*%
D10*
%TO.N,GND*%
%TO.C,J1*%
X126400000Y-80600000D03*
D11*
%TO.N,VCC*%
X126400000Y-83140000D03*
%TO.N,/sda*%
X126400000Y-85680000D03*
%TO.N,/sck*%
X126400000Y-88220000D03*
%TD*%
D12*
%TO.N,/D2*%
X109658000Y-72656900D03*
%TO.N,/TX*%
X110300000Y-70138500D03*
%TO.N,/RX*%
X111100000Y-72669600D03*
%TO.N,/RESET*%
X104826000Y-78200000D03*
X111934000Y-70134600D03*
%TO.N,Net-(U1-AREF)*%
X118908000Y-74235700D03*
X113327000Y-68214500D03*
%TO.N,/MISO*%
X123007000Y-74240000D03*
%TO.N,/D8*%
X111462000Y-81277700D03*
%TO.N,/D7*%
X109398000Y-81271100D03*
%TO.N,/D6*%
X109268000Y-78507700D03*
%TO.N,/D5*%
X108659000Y-79884600D03*
%TO.N,/D4*%
X106741000Y-73700000D03*
%TO.N,/D3*%
X106452000Y-72610200D03*
%TO.N,/sda*%
X120094000Y-67695800D03*
X103800000Y-77522500D03*
X99952500Y-84505000D03*
X104474000Y-72401800D03*
%TO.N,/sck*%
X96709700Y-71396800D03*
X95336200Y-82146900D03*
X106466000Y-69456200D03*
%TO.N,Net-(U2-SQW{slash}~INT)*%
X102620000Y-81256200D03*
X113434000Y-82000800D03*
%TO.N,VCC*%
X90918900Y-71650500D03*
%TO.N,GND*%
X113205000Y-75632500D03*
%TD*%
%TA.AperFunction,Conductor*%
%TO.N,GND*%
G36*
X126841444Y-72893999D02*
G01*
X126880486Y-72939056D01*
X126884951Y-72947820D01*
X127009890Y-73119786D01*
X127160213Y-73270109D01*
X127332179Y-73395048D01*
X127332181Y-73395049D01*
X127332184Y-73395051D01*
X127341493Y-73399794D01*
X127392290Y-73447766D01*
X127409087Y-73515587D01*
X127386552Y-73581722D01*
X127341505Y-73620760D01*
X127332446Y-73625376D01*
X127332440Y-73625380D01*
X127278282Y-73664727D01*
X127278282Y-73664728D01*
X127910591Y-74297037D01*
X127847007Y-74314075D01*
X127732993Y-74379901D01*
X127639901Y-74472993D01*
X127574075Y-74587007D01*
X127557037Y-74650591D01*
X126924728Y-74018282D01*
X126924727Y-74018282D01*
X126885380Y-74072440D01*
X126885376Y-74072446D01*
X126880760Y-74081505D01*
X126832781Y-74132297D01*
X126764959Y-74149087D01*
X126698826Y-74126543D01*
X126659794Y-74081493D01*
X126655051Y-74072184D01*
X126655049Y-74072181D01*
X126655048Y-74072179D01*
X126530109Y-73900213D01*
X126379786Y-73749890D01*
X126207820Y-73624951D01*
X126207115Y-73624591D01*
X126199054Y-73620485D01*
X126148259Y-73572512D01*
X126131463Y-73504692D01*
X126153999Y-73438556D01*
X126199054Y-73399515D01*
X126207816Y-73395051D01*
X126247397Y-73366294D01*
X126379786Y-73270109D01*
X126379788Y-73270106D01*
X126379792Y-73270104D01*
X126530104Y-73119792D01*
X126530106Y-73119788D01*
X126530109Y-73119786D01*
X126655048Y-72947820D01*
X126655047Y-72947820D01*
X126655051Y-72947816D01*
X126659514Y-72939054D01*
X126707488Y-72888259D01*
X126775308Y-72871463D01*
X126841444Y-72893999D01*
G37*
%TD.AperFunction*%
%TA.AperFunction,Conductor*%
G36*
X129587442Y-60546307D02*
G01*
X129601647Y-60547827D01*
X129902367Y-60597667D01*
X129916300Y-60600811D01*
X130209306Y-60684926D01*
X130222783Y-60689652D01*
X130504146Y-60806915D01*
X130516997Y-60813162D01*
X130783008Y-60962024D01*
X130795047Y-60969704D01*
X130874132Y-61026823D01*
X131042164Y-61148185D01*
X131053247Y-61157206D01*
X131094305Y-61194757D01*
X131104763Y-61205557D01*
X131119209Y-61222410D01*
X131653935Y-61846259D01*
X131662173Y-61857006D01*
X131668604Y-61866419D01*
X131675974Y-61878667D01*
X131718251Y-61959081D01*
X131789593Y-62094780D01*
X131817824Y-62148476D01*
X131823731Y-62161482D01*
X131932454Y-62442869D01*
X131933595Y-62445822D01*
X131937969Y-62459427D01*
X132014385Y-62754515D01*
X132017165Y-62768534D01*
X132059121Y-63070460D01*
X132060269Y-63084704D01*
X132067208Y-63389453D01*
X132066709Y-63403736D01*
X132038537Y-63707247D01*
X132036399Y-63721377D01*
X131973490Y-64019648D01*
X131969739Y-64033439D01*
X131872932Y-64322478D01*
X131867620Y-64335745D01*
X131738199Y-64611727D01*
X131731396Y-64624295D01*
X131571078Y-64883555D01*
X131562874Y-64895257D01*
X131373788Y-65134351D01*
X131364291Y-65145031D01*
X131148949Y-65360782D01*
X131138288Y-65370298D01*
X130899562Y-65559831D01*
X130887876Y-65568058D01*
X130628914Y-65728874D01*
X130616358Y-65735701D01*
X130363423Y-65854901D01*
X130359643Y-65856606D01*
X130351230Y-65860231D01*
X130328981Y-65866138D01*
X130303253Y-65880910D01*
X130296733Y-65883721D01*
X130296211Y-65883784D01*
X130293970Y-65884873D01*
X130273023Y-65893307D01*
X130251159Y-65909740D01*
X130245045Y-65914334D01*
X130214699Y-65931762D01*
X130192605Y-65953750D01*
X130185733Y-65958916D01*
X130185731Y-65958918D01*
X130167682Y-65972485D01*
X130150815Y-65994015D01*
X130150816Y-65994016D01*
X130146097Y-66000041D01*
X130121294Y-66024729D01*
X130105643Y-66051688D01*
X130100341Y-66058458D01*
X130100338Y-66058459D01*
X130086421Y-66076229D01*
X130086420Y-66076231D01*
X130086419Y-66076234D01*
X130072704Y-66108434D01*
X130055134Y-66138702D01*
X130046994Y-66168795D01*
X130034778Y-66197478D01*
X130029864Y-66232131D01*
X130020727Y-66265915D01*
X130020653Y-66297086D01*
X130019446Y-66305598D01*
X130019446Y-66305603D01*
X130016277Y-66327958D01*
X130016276Y-66327959D01*
X130019575Y-66355095D01*
X130020481Y-66370347D01*
X129964914Y-90029077D01*
X129964763Y-90093194D01*
X129964389Y-90158420D01*
X129964607Y-90159252D01*
X129964605Y-90160115D01*
X129972646Y-90190409D01*
X129980593Y-90220351D01*
X129981146Y-90222431D01*
X129981253Y-90222836D01*
X129997766Y-90285908D01*
X129998165Y-90286887D01*
X129998165Y-90286888D01*
X129998398Y-90287462D01*
X129998415Y-90287491D01*
X130030560Y-90343474D01*
X130030671Y-90343888D01*
X130030767Y-90343834D01*
X130063002Y-90400412D01*
X130063651Y-90401268D01*
X130064021Y-90401756D01*
X130109611Y-90447561D01*
X130109907Y-90447859D01*
X130155650Y-90494130D01*
X130156333Y-90494660D01*
X130156333Y-90494661D01*
X130156344Y-90494669D01*
X130156984Y-90495165D01*
X130157003Y-90495176D01*
X130157005Y-90495178D01*
X130209046Y-90525387D01*
X130215923Y-90529685D01*
X130453254Y-90689059D01*
X130465457Y-90698401D01*
X130678525Y-90883551D01*
X130689473Y-90894326D01*
X130873586Y-91099500D01*
X130877992Y-91104410D01*
X130887528Y-91116463D01*
X131006532Y-91287713D01*
X131048613Y-91348268D01*
X131056585Y-91361411D01*
X131187739Y-91611344D01*
X131194025Y-91625372D01*
X131293254Y-91889629D01*
X131297755Y-91904326D01*
X131363526Y-92178826D01*
X131366174Y-92193968D01*
X131397475Y-92474487D01*
X131398230Y-92489840D01*
X131394583Y-92772088D01*
X131393432Y-92787417D01*
X131354891Y-93067043D01*
X131351852Y-93082111D01*
X131279011Y-93354816D01*
X131274132Y-93369392D01*
X131168113Y-93630984D01*
X131161467Y-93644846D01*
X131023888Y-93891324D01*
X131015578Y-93904255D01*
X130848565Y-94131812D01*
X130838719Y-94143617D01*
X130644841Y-94348753D01*
X130633611Y-94359249D01*
X130415834Y-94538828D01*
X130403391Y-94547854D01*
X130165063Y-94699112D01*
X130151598Y-94706528D01*
X129896400Y-94827129D01*
X129882123Y-94832823D01*
X129613958Y-94920926D01*
X129599084Y-94924810D01*
X129322073Y-94979057D01*
X129306834Y-94981070D01*
X129025245Y-95000626D01*
X129009878Y-95000738D01*
X128728021Y-94985304D01*
X128712768Y-94983515D01*
X128435002Y-94933328D01*
X128420073Y-94929663D01*
X128150642Y-94845491D01*
X128136283Y-94840007D01*
X127879344Y-94723152D01*
X127865772Y-94715933D01*
X127625260Y-94568181D01*
X127612686Y-94559338D01*
X127598245Y-94547781D01*
X127490813Y-94461801D01*
X127392309Y-94382967D01*
X127380927Y-94372637D01*
X127184056Y-94170347D01*
X127174038Y-94158687D01*
X127003719Y-93933606D01*
X126995221Y-93920797D01*
X126982082Y-93898046D01*
X126854054Y-93676364D01*
X126847207Y-93662604D01*
X126839706Y-93644846D01*
X126737362Y-93402569D01*
X126732277Y-93388085D01*
X126655453Y-93116468D01*
X126652194Y-93101447D01*
X126649164Y-93081613D01*
X126609563Y-92822403D01*
X126608191Y-92807116D01*
X126600547Y-92529730D01*
X126600500Y-92526314D01*
X126600500Y-92510763D01*
X126600574Y-92506491D01*
X126600879Y-92497648D01*
X127699500Y-92497648D01*
X127699500Y-92702351D01*
X127731522Y-92904534D01*
X127794781Y-93099223D01*
X127887715Y-93281613D01*
X128008028Y-93447213D01*
X128152786Y-93591971D01*
X128299858Y-93698823D01*
X128318390Y-93712287D01*
X128434607Y-93771503D01*
X128500776Y-93805218D01*
X128500778Y-93805218D01*
X128500781Y-93805220D01*
X128605137Y-93839127D01*
X128695465Y-93868477D01*
X128796557Y-93884488D01*
X128897648Y-93900500D01*
X128897649Y-93900500D01*
X129102351Y-93900500D01*
X129102352Y-93900500D01*
X129304534Y-93868477D01*
X129499219Y-93805220D01*
X129681610Y-93712287D01*
X129806931Y-93621237D01*
X129847213Y-93591971D01*
X129847215Y-93591968D01*
X129847219Y-93591966D01*
X129991966Y-93447219D01*
X129991968Y-93447215D01*
X129991971Y-93447213D01*
X130054346Y-93361359D01*
X130112287Y-93281610D01*
X130205220Y-93099219D01*
X130268477Y-92904534D01*
X130300500Y-92702352D01*
X130300500Y-92497648D01*
X130290434Y-92434096D01*
X130268477Y-92295465D01*
X130221926Y-92152198D01*
X130205220Y-92100781D01*
X130205218Y-92100778D01*
X130205218Y-92100776D01*
X130153615Y-91999501D01*
X130112287Y-91918390D01*
X130091391Y-91889629D01*
X129991971Y-91752786D01*
X129847213Y-91608028D01*
X129681613Y-91487715D01*
X129681612Y-91487714D01*
X129681610Y-91487713D01*
X129624653Y-91458691D01*
X129499223Y-91394781D01*
X129304534Y-91331522D01*
X129129995Y-91303878D01*
X129102352Y-91299500D01*
X128897648Y-91299500D01*
X128873329Y-91303351D01*
X128695465Y-91331522D01*
X128500776Y-91394781D01*
X128318386Y-91487715D01*
X128152786Y-91608028D01*
X128008028Y-91752786D01*
X127887715Y-91918386D01*
X127794781Y-92100776D01*
X127731522Y-92295465D01*
X127699500Y-92497648D01*
X126600879Y-92497648D01*
X126601194Y-92488504D01*
X126601194Y-92488502D01*
X126601287Y-92485808D01*
X126602474Y-92451395D01*
X126602472Y-92451386D01*
X126601691Y-92443299D01*
X126602160Y-92443253D01*
X126602029Y-92442106D01*
X126601561Y-92442168D01*
X126600500Y-92434115D01*
X126600500Y-92434108D01*
X126586234Y-92380866D01*
X126585199Y-92376719D01*
X126583860Y-92370931D01*
X126572773Y-92323002D01*
X126568658Y-92315271D01*
X126566392Y-92306814D01*
X126537764Y-92257229D01*
X126510853Y-92206670D01*
X126504877Y-92200267D01*
X126500500Y-92192686D01*
X126460021Y-92152207D01*
X126458594Y-92150678D01*
X126458569Y-92150652D01*
X126448615Y-92139987D01*
X126420934Y-92110329D01*
X126413505Y-92105691D01*
X126407314Y-92099500D01*
X126357715Y-92070864D01*
X126309144Y-92040543D01*
X126309143Y-92040542D01*
X126309142Y-92040542D01*
X126301743Y-92037174D01*
X126301938Y-92036743D01*
X126300876Y-92036281D01*
X126300695Y-92036719D01*
X126293181Y-92033606D01*
X126239927Y-92019336D01*
X126239927Y-92019335D01*
X126237807Y-92018767D01*
X126183101Y-92002068D01*
X126174353Y-92001766D01*
X126165899Y-91999501D01*
X126165893Y-91999500D01*
X126165892Y-91999500D01*
X126165890Y-91999500D01*
X126110764Y-91999500D01*
X126106491Y-91999426D01*
X126051397Y-91997526D01*
X126051396Y-91997526D01*
X126051395Y-91997526D01*
X126051393Y-91997526D01*
X126043304Y-91998309D01*
X126043258Y-91997838D01*
X126028708Y-91999500D01*
X85308636Y-91999500D01*
X85251395Y-91997526D01*
X85242862Y-91999500D01*
X85234102Y-91999500D01*
X85180864Y-92013765D01*
X85176722Y-92014799D01*
X85123002Y-92027227D01*
X85122999Y-92027228D01*
X85116989Y-92030426D01*
X85115271Y-92031341D01*
X85106814Y-92033608D01*
X85057260Y-92062216D01*
X85055340Y-92063239D01*
X85055335Y-92063243D01*
X85006671Y-92089146D01*
X85006666Y-92089150D01*
X85001920Y-92093579D01*
X85000267Y-92095122D01*
X84992686Y-92099500D01*
X84952219Y-92139965D01*
X84950660Y-92141421D01*
X84950638Y-92141443D01*
X84910323Y-92179071D01*
X84905162Y-92185338D01*
X84904803Y-92185042D01*
X84904078Y-92185953D01*
X84904448Y-92186237D01*
X84899502Y-92192683D01*
X84899500Y-92192685D01*
X84899500Y-92192686D01*
X84871922Y-92240451D01*
X84871921Y-92240450D01*
X84870839Y-92242323D01*
X84840543Y-92290856D01*
X84837988Y-92299222D01*
X84833609Y-92306809D01*
X84819334Y-92360080D01*
X84818775Y-92362162D01*
X84802068Y-92416899D01*
X84801766Y-92425642D01*
X84799501Y-92434096D01*
X84799500Y-92434110D01*
X84799500Y-92479797D01*
X84798919Y-92491788D01*
X84771592Y-92773045D01*
X84769140Y-92788311D01*
X84706734Y-93065275D01*
X84702402Y-93080117D01*
X84606009Y-93347172D01*
X84599863Y-93361359D01*
X84470991Y-93614333D01*
X84463128Y-93627645D01*
X84303775Y-93862618D01*
X84294316Y-93874849D01*
X84106955Y-94088170D01*
X84096047Y-94099128D01*
X83883606Y-94287465D01*
X83871420Y-94296981D01*
X83637175Y-94457428D01*
X83623899Y-94465352D01*
X83371531Y-94595390D01*
X83357372Y-94601602D01*
X83090767Y-94699228D01*
X83075945Y-94703629D01*
X82799267Y-94767318D01*
X82784013Y-94769840D01*
X82501559Y-94798603D01*
X82486110Y-94799207D01*
X82202276Y-94792597D01*
X82186871Y-94791274D01*
X81906070Y-94749392D01*
X81890950Y-94746163D01*
X81617528Y-94669659D01*
X81602927Y-94664572D01*
X81341170Y-94554644D01*
X81327316Y-94547781D01*
X81081260Y-94406126D01*
X81068367Y-94397591D01*
X80841856Y-94226418D01*
X80830126Y-94216345D01*
X80808739Y-94195528D01*
X80626682Y-94018319D01*
X80616297Y-94006866D01*
X80552856Y-93927465D01*
X80439071Y-93785054D01*
X80430194Y-93772400D01*
X80416175Y-93749501D01*
X80281946Y-93530250D01*
X80274720Y-93516604D01*
X80157758Y-93257887D01*
X80152281Y-93243430D01*
X80132675Y-93180007D01*
X80068429Y-92972184D01*
X80064793Y-92957160D01*
X80038255Y-92807104D01*
X80015347Y-92677573D01*
X80013611Y-92662228D01*
X79999341Y-92378662D01*
X79999528Y-92363208D01*
X80004421Y-92297648D01*
X81099500Y-92297648D01*
X81099500Y-92502351D01*
X81131522Y-92704534D01*
X81194781Y-92899223D01*
X81246385Y-93000500D01*
X81286952Y-93080117D01*
X81287715Y-93081613D01*
X81408028Y-93247213D01*
X81552786Y-93391971D01*
X81707749Y-93504556D01*
X81718390Y-93512287D01*
X81834607Y-93571503D01*
X81900776Y-93605218D01*
X81900778Y-93605218D01*
X81900781Y-93605220D01*
X82002058Y-93638127D01*
X82095465Y-93668477D01*
X82145274Y-93676366D01*
X82297648Y-93700500D01*
X82297649Y-93700500D01*
X82502351Y-93700500D01*
X82502352Y-93700500D01*
X82704534Y-93668477D01*
X82899219Y-93605220D01*
X83081610Y-93512287D01*
X83174590Y-93444732D01*
X83247213Y-93391971D01*
X83247215Y-93391968D01*
X83247219Y-93391966D01*
X83391966Y-93247219D01*
X83391968Y-93247215D01*
X83391971Y-93247213D01*
X83486961Y-93116468D01*
X83512287Y-93081610D01*
X83605220Y-92899219D01*
X83668477Y-92704534D01*
X83700500Y-92502352D01*
X83700500Y-92297648D01*
X83685076Y-92200267D01*
X83668477Y-92095465D01*
X83636654Y-91997526D01*
X83605220Y-91900781D01*
X83605218Y-91900778D01*
X83605218Y-91900776D01*
X83571503Y-91834607D01*
X83512287Y-91718390D01*
X83504556Y-91707749D01*
X83391971Y-91552786D01*
X83247213Y-91408028D01*
X83081613Y-91287715D01*
X83081612Y-91287714D01*
X83081610Y-91287713D01*
X83024653Y-91258691D01*
X82899223Y-91194781D01*
X82704534Y-91131522D01*
X82529995Y-91103878D01*
X82502352Y-91099500D01*
X82297648Y-91099500D01*
X82273329Y-91103351D01*
X82095465Y-91131522D01*
X81900776Y-91194781D01*
X81718386Y-91287715D01*
X81552786Y-91408028D01*
X81408028Y-91552786D01*
X81287715Y-91718386D01*
X81194781Y-91900776D01*
X81131522Y-92095465D01*
X81099500Y-92297648D01*
X80004421Y-92297648D01*
X80020659Y-92080065D01*
X80022766Y-92064775D01*
X80078967Y-91786462D01*
X80082962Y-91771543D01*
X80173365Y-91502382D01*
X80179183Y-91488083D01*
X80302374Y-91232272D01*
X80309934Y-91218796D01*
X80464000Y-90980308D01*
X80473172Y-90967883D01*
X80655730Y-90750410D01*
X80666364Y-90739237D01*
X80874573Y-90546167D01*
X80886521Y-90536400D01*
X81117123Y-90370753D01*
X81130209Y-90362538D01*
X81379642Y-90226870D01*
X81393630Y-90220357D01*
X81653812Y-90118428D01*
X81660220Y-90116119D01*
X81663509Y-90115035D01*
X81705466Y-90103771D01*
X81715770Y-90097814D01*
X81727913Y-90093813D01*
X81727929Y-90093804D01*
X81727935Y-90093803D01*
X81773067Y-90064696D01*
X81819561Y-90037822D01*
X81828296Y-90029077D01*
X81838685Y-90022378D01*
X81874750Y-89982577D01*
X81912700Y-89944589D01*
X81918874Y-89933882D01*
X81927175Y-89924722D01*
X81950336Y-89879617D01*
X81953200Y-89874358D01*
X81978535Y-89830428D01*
X81981728Y-89818484D01*
X81987374Y-89807491D01*
X81998704Y-89755002D01*
X82012579Y-89703117D01*
X82012572Y-89690756D01*
X82015181Y-89678674D01*
X82012539Y-89625034D01*
X82012076Y-88702135D01*
X86549500Y-88702135D01*
X86549500Y-90497870D01*
X86549501Y-90497876D01*
X86555908Y-90557483D01*
X86606202Y-90692328D01*
X86606206Y-90692335D01*
X86692452Y-90807544D01*
X86692455Y-90807547D01*
X86807664Y-90893793D01*
X86807671Y-90893797D01*
X86942517Y-90944091D01*
X86942516Y-90944091D01*
X86949444Y-90944835D01*
X87002127Y-90950500D01*
X88797872Y-90950499D01*
X88857483Y-90944091D01*
X88992331Y-90893796D01*
X89107546Y-90807546D01*
X89193796Y-90692331D01*
X89242810Y-90560916D01*
X89284681Y-90504984D01*
X89350145Y-90480566D01*
X89418418Y-90495417D01*
X89446673Y-90516569D01*
X89560213Y-90630109D01*
X89732179Y-90755048D01*
X89732181Y-90755049D01*
X89732184Y-90755051D01*
X89921588Y-90851557D01*
X90123757Y-90917246D01*
X90333713Y-90950500D01*
X90333714Y-90950500D01*
X90546286Y-90950500D01*
X90546287Y-90950500D01*
X90756243Y-90917246D01*
X90958412Y-90851557D01*
X91147816Y-90755051D01*
X91225786Y-90698403D01*
X91319786Y-90630109D01*
X91319788Y-90630106D01*
X91319792Y-90630104D01*
X91470104Y-90479792D01*
X91470106Y-90479788D01*
X91470109Y-90479786D01*
X91595048Y-90307820D01*
X91595047Y-90307820D01*
X91595051Y-90307816D01*
X91599514Y-90299054D01*
X91647488Y-90248259D01*
X91715308Y-90231463D01*
X91781444Y-90253999D01*
X91820486Y-90299056D01*
X91824951Y-90307820D01*
X91949890Y-90479786D01*
X92100213Y-90630109D01*
X92272179Y-90755048D01*
X92272181Y-90755049D01*
X92272184Y-90755051D01*
X92461588Y-90851557D01*
X92663757Y-90917246D01*
X92873713Y-90950500D01*
X92873714Y-90950500D01*
X93086286Y-90950500D01*
X93086287Y-90950500D01*
X93296243Y-90917246D01*
X93498412Y-90851557D01*
X93687816Y-90755051D01*
X93765786Y-90698403D01*
X93859786Y-90630109D01*
X93859788Y-90630106D01*
X93859792Y-90630104D01*
X94010104Y-90479792D01*
X94010106Y-90479788D01*
X94010109Y-90479786D01*
X94135048Y-90307820D01*
X94135047Y-90307820D01*
X94135051Y-90307816D01*
X94139514Y-90299054D01*
X94187488Y-90248259D01*
X94255308Y-90231463D01*
X94321444Y-90253999D01*
X94360486Y-90299056D01*
X94364951Y-90307820D01*
X94489890Y-90479786D01*
X94640213Y-90630109D01*
X94812179Y-90755048D01*
X94812181Y-90755049D01*
X94812184Y-90755051D01*
X95001588Y-90851557D01*
X95203757Y-90917246D01*
X95413713Y-90950500D01*
X95413714Y-90950500D01*
X95626286Y-90950500D01*
X95626287Y-90950500D01*
X95836243Y-90917246D01*
X96038412Y-90851557D01*
X96227816Y-90755051D01*
X96305786Y-90698403D01*
X96399786Y-90630109D01*
X96399788Y-90630106D01*
X96399792Y-90630104D01*
X96550104Y-90479792D01*
X96550106Y-90479788D01*
X96550109Y-90479786D01*
X96675048Y-90307820D01*
X96675047Y-90307820D01*
X96675051Y-90307816D01*
X96679514Y-90299054D01*
X96727488Y-90248259D01*
X96795308Y-90231463D01*
X96861444Y-90253999D01*
X96900486Y-90299056D01*
X96904951Y-90307820D01*
X97029890Y-90479786D01*
X97180213Y-90630109D01*
X97352179Y-90755048D01*
X97352181Y-90755049D01*
X97352184Y-90755051D01*
X97541588Y-90851557D01*
X97743757Y-90917246D01*
X97953713Y-90950500D01*
X97953714Y-90950500D01*
X98166286Y-90950500D01*
X98166287Y-90950500D01*
X98376243Y-90917246D01*
X98578412Y-90851557D01*
X98767816Y-90755051D01*
X98845786Y-90698403D01*
X98939786Y-90630109D01*
X98939788Y-90630106D01*
X98939792Y-90630104D01*
X99090104Y-90479792D01*
X99090106Y-90479788D01*
X99090109Y-90479786D01*
X99215048Y-90307820D01*
X99215047Y-90307820D01*
X99215051Y-90307816D01*
X99219514Y-90299054D01*
X99267488Y-90248259D01*
X99335308Y-90231463D01*
X99401444Y-90253999D01*
X99440486Y-90299056D01*
X99444951Y-90307820D01*
X99569890Y-90479786D01*
X99720213Y-90630109D01*
X99892179Y-90755048D01*
X99892181Y-90755049D01*
X99892184Y-90755051D01*
X100081588Y-90851557D01*
X100283757Y-90917246D01*
X100493713Y-90950500D01*
X100493714Y-90950500D01*
X100706286Y-90950500D01*
X100706287Y-90950500D01*
X100916243Y-90917246D01*
X101118412Y-90851557D01*
X101307816Y-90755051D01*
X101385786Y-90698403D01*
X101479786Y-90630109D01*
X101479788Y-90630106D01*
X101479792Y-90630104D01*
X101630104Y-90479792D01*
X101630106Y-90479788D01*
X101630109Y-90479786D01*
X101755048Y-90307820D01*
X101755047Y-90307820D01*
X101755051Y-90307816D01*
X101759514Y-90299054D01*
X101807488Y-90248259D01*
X101875308Y-90231463D01*
X101941444Y-90253999D01*
X101980486Y-90299056D01*
X101984951Y-90307820D01*
X102109890Y-90479786D01*
X102260213Y-90630109D01*
X102432179Y-90755048D01*
X102432181Y-90755049D01*
X102432184Y-90755051D01*
X102621588Y-90851557D01*
X102823757Y-90917246D01*
X103033713Y-90950500D01*
X103033714Y-90950500D01*
X103246286Y-90950500D01*
X103246287Y-90950500D01*
X103456243Y-90917246D01*
X103658412Y-90851557D01*
X103847816Y-90755051D01*
X103925786Y-90698403D01*
X104019786Y-90630109D01*
X104019788Y-90630106D01*
X104019792Y-90630104D01*
X104170104Y-90479792D01*
X104170106Y-90479788D01*
X104170109Y-90479786D01*
X104255890Y-90361717D01*
X104295051Y-90307816D01*
X104299793Y-90298508D01*
X104347763Y-90247711D01*
X104415583Y-90230911D01*
X104481719Y-90253445D01*
X104520763Y-90298500D01*
X104525373Y-90307547D01*
X104564728Y-90361716D01*
X105197037Y-89729408D01*
X105214075Y-89792993D01*
X105279901Y-89907007D01*
X105372993Y-90000099D01*
X105487007Y-90065925D01*
X105550590Y-90082962D01*
X104918282Y-90715269D01*
X104918282Y-90715270D01*
X104972449Y-90754624D01*
X105161782Y-90851095D01*
X105363870Y-90916757D01*
X105573754Y-90950000D01*
X105786246Y-90950000D01*
X105996127Y-90916757D01*
X105996130Y-90916757D01*
X106198217Y-90851095D01*
X106387554Y-90754622D01*
X106441716Y-90715270D01*
X106441717Y-90715270D01*
X105809408Y-90082962D01*
X105872993Y-90065925D01*
X105987007Y-90000099D01*
X106080099Y-89907007D01*
X106145925Y-89792993D01*
X106162962Y-89729408D01*
X106795270Y-90361717D01*
X106795270Y-90361716D01*
X106834622Y-90307555D01*
X106839232Y-90298507D01*
X106887205Y-90247709D01*
X106955025Y-90230912D01*
X107021161Y-90253447D01*
X107060204Y-90298504D01*
X107064949Y-90307817D01*
X107189890Y-90479786D01*
X107340213Y-90630109D01*
X107512179Y-90755048D01*
X107512181Y-90755049D01*
X107512184Y-90755051D01*
X107701588Y-90851557D01*
X107903757Y-90917246D01*
X108113713Y-90950500D01*
X108113714Y-90950500D01*
X108326286Y-90950500D01*
X108326287Y-90950500D01*
X108536243Y-90917246D01*
X108738412Y-90851557D01*
X108927816Y-90755051D01*
X109005786Y-90698403D01*
X109099786Y-90630109D01*
X109099788Y-90630106D01*
X109099792Y-90630104D01*
X109250104Y-90479792D01*
X109250106Y-90479788D01*
X109250109Y-90479786D01*
X109375048Y-90307820D01*
X109375047Y-90307820D01*
X109375051Y-90307816D01*
X109471557Y-90118412D01*
X109537246Y-89916243D01*
X109570500Y-89706287D01*
X109570500Y-89493713D01*
X109537246Y-89283757D01*
X109471557Y-89081588D01*
X109375051Y-88892184D01*
X109375049Y-88892181D01*
X109375048Y-88892179D01*
X109250109Y-88720213D01*
X109099786Y-88569890D01*
X109002445Y-88499169D01*
X108927819Y-88444951D01*
X108927818Y-88444950D01*
X108927816Y-88444949D01*
X108843828Y-88402155D01*
X111550000Y-88402155D01*
X111550000Y-89050000D01*
X112466988Y-89050000D01*
X112434075Y-89107007D01*
X112400000Y-89234174D01*
X112400000Y-89365826D01*
X112434075Y-89492993D01*
X112466988Y-89550000D01*
X111550000Y-89550000D01*
X111550000Y-90197844D01*
X111556401Y-90257372D01*
X111556403Y-90257379D01*
X111606645Y-90392086D01*
X111606649Y-90392093D01*
X111692809Y-90507187D01*
X111692812Y-90507190D01*
X111807906Y-90593350D01*
X111807913Y-90593354D01*
X111942620Y-90643596D01*
X111942627Y-90643598D01*
X112002155Y-90649999D01*
X112002172Y-90650000D01*
X112650000Y-90650000D01*
X112650000Y-89733012D01*
X112707007Y-89765925D01*
X112834174Y-89800000D01*
X112965826Y-89800000D01*
X113092993Y-89765925D01*
X113150000Y-89733012D01*
X113150000Y-90650000D01*
X113797828Y-90650000D01*
X113797844Y-90649999D01*
X113857372Y-90643598D01*
X113857379Y-90643596D01*
X113992086Y-90593354D01*
X113992093Y-90593350D01*
X114107187Y-90507190D01*
X114107190Y-90507187D01*
X114193350Y-90392093D01*
X114193354Y-90392086D01*
X114242422Y-90260529D01*
X114284293Y-90204595D01*
X114349757Y-90180178D01*
X114418030Y-90195030D01*
X114446285Y-90216181D01*
X114560213Y-90330109D01*
X114732179Y-90455048D01*
X114732181Y-90455049D01*
X114732184Y-90455051D01*
X114921588Y-90551557D01*
X115123757Y-90617246D01*
X115333713Y-90650500D01*
X115333714Y-90650500D01*
X115546286Y-90650500D01*
X115546287Y-90650500D01*
X115756243Y-90617246D01*
X115958412Y-90551557D01*
X116147816Y-90455051D01*
X116169789Y-90439086D01*
X116319786Y-90330109D01*
X116319788Y-90330106D01*
X116319792Y-90330104D01*
X116470104Y-90179792D01*
X116470106Y-90179788D01*
X116470109Y-90179786D01*
X116595048Y-90007820D01*
X116595047Y-90007820D01*
X116595051Y-90007816D01*
X116599514Y-89999054D01*
X116647488Y-89948259D01*
X116715308Y-89931463D01*
X116781444Y-89953999D01*
X116820486Y-89999056D01*
X116824951Y-90007820D01*
X116949890Y-90179786D01*
X117100213Y-90330109D01*
X117272179Y-90455048D01*
X117272181Y-90455049D01*
X117272184Y-90455051D01*
X117461588Y-90551557D01*
X117663757Y-90617246D01*
X117873713Y-90650500D01*
X117873714Y-90650500D01*
X118086286Y-90650500D01*
X118086287Y-90650500D01*
X118296243Y-90617246D01*
X118498412Y-90551557D01*
X118687816Y-90455051D01*
X118709789Y-90439086D01*
X118859786Y-90330109D01*
X118859788Y-90330106D01*
X118859792Y-90330104D01*
X119010104Y-90179792D01*
X119010106Y-90179788D01*
X119010109Y-90179786D01*
X119135048Y-90007820D01*
X119135047Y-90007820D01*
X119135051Y-90007816D01*
X119139514Y-89999054D01*
X119187488Y-89948259D01*
X119255308Y-89931463D01*
X119321444Y-89953999D01*
X119360486Y-89999056D01*
X119364951Y-90007820D01*
X119489890Y-90179786D01*
X119640213Y-90330109D01*
X119812179Y-90455048D01*
X119812181Y-90455049D01*
X119812184Y-90455051D01*
X120001588Y-90551557D01*
X120203757Y-90617246D01*
X120413713Y-90650500D01*
X120413714Y-90650500D01*
X120626286Y-90650500D01*
X120626287Y-90650500D01*
X120836243Y-90617246D01*
X121038412Y-90551557D01*
X121227816Y-90455051D01*
X121249789Y-90439086D01*
X121399786Y-90330109D01*
X121399788Y-90330106D01*
X121399792Y-90330104D01*
X121550104Y-90179792D01*
X121550106Y-90179788D01*
X121550109Y-90179786D01*
X121675048Y-90007820D01*
X121675047Y-90007820D01*
X121675051Y-90007816D01*
X121771557Y-89818412D01*
X121837246Y-89616243D01*
X121870500Y-89406287D01*
X121870500Y-89193713D01*
X121837246Y-88983757D01*
X121771557Y-88781588D01*
X121675051Y-88592184D01*
X121675049Y-88592181D01*
X121675048Y-88592179D01*
X121550109Y-88420213D01*
X121399786Y-88269890D01*
X121227820Y-88144951D01*
X121038414Y-88048444D01*
X121038413Y-88048443D01*
X121038412Y-88048443D01*
X120836243Y-87982754D01*
X120836241Y-87982753D01*
X120836240Y-87982753D01*
X120674957Y-87957208D01*
X120626287Y-87949500D01*
X120413713Y-87949500D01*
X120365042Y-87957208D01*
X120203760Y-87982753D01*
X120001585Y-88048444D01*
X119812179Y-88144951D01*
X119640213Y-88269890D01*
X119489890Y-88420213D01*
X119364949Y-88592182D01*
X119360484Y-88600946D01*
X119312509Y-88651742D01*
X119244688Y-88668536D01*
X119178553Y-88645998D01*
X119139516Y-88600946D01*
X119135050Y-88592182D01*
X119010109Y-88420213D01*
X118859786Y-88269890D01*
X118687820Y-88144951D01*
X118498414Y-88048444D01*
X118498413Y-88048443D01*
X118498412Y-88048443D01*
X118296243Y-87982754D01*
X118296241Y-87982753D01*
X118296240Y-87982753D01*
X118134957Y-87957208D01*
X118086287Y-87949500D01*
X117873713Y-87949500D01*
X117825042Y-87957208D01*
X117663760Y-87982753D01*
X117461585Y-88048444D01*
X117272179Y-88144951D01*
X117100213Y-88269890D01*
X116949890Y-88420213D01*
X116824949Y-88592182D01*
X116820484Y-88600946D01*
X116772509Y-88651742D01*
X116704688Y-88668536D01*
X116638553Y-88645998D01*
X116599516Y-88600946D01*
X116595050Y-88592182D01*
X116470109Y-88420213D01*
X116319786Y-88269890D01*
X116147820Y-88144951D01*
X115958414Y-88048444D01*
X115958413Y-88048443D01*
X115958412Y-88048443D01*
X115756243Y-87982754D01*
X115756241Y-87982753D01*
X115756240Y-87982753D01*
X115594957Y-87957208D01*
X115546287Y-87949500D01*
X115333713Y-87949500D01*
X115285042Y-87957208D01*
X115123760Y-87982753D01*
X114921585Y-88048444D01*
X114732179Y-88144951D01*
X114560215Y-88269889D01*
X114446285Y-88383819D01*
X114384962Y-88417303D01*
X114315270Y-88412319D01*
X114259337Y-88370447D01*
X114242422Y-88339470D01*
X114193354Y-88207913D01*
X114193350Y-88207906D01*
X114107190Y-88092812D01*
X114107187Y-88092809D01*
X113992093Y-88006649D01*
X113992086Y-88006645D01*
X113857379Y-87956403D01*
X113857372Y-87956401D01*
X113797844Y-87950000D01*
X113150000Y-87950000D01*
X113150000Y-88866988D01*
X113092993Y-88834075D01*
X112965826Y-88800000D01*
X112834174Y-88800000D01*
X112707007Y-88834075D01*
X112650000Y-88866988D01*
X112650000Y-87950000D01*
X112002155Y-87950000D01*
X111942627Y-87956401D01*
X111942620Y-87956403D01*
X111807913Y-88006645D01*
X111807906Y-88006649D01*
X111692812Y-88092809D01*
X111692809Y-88092812D01*
X111606649Y-88207906D01*
X111606645Y-88207913D01*
X111556403Y-88342620D01*
X111556401Y-88342627D01*
X111550000Y-88402155D01*
X108843828Y-88402155D01*
X108738412Y-88348443D01*
X108536243Y-88282754D01*
X108536241Y-88282753D01*
X108536240Y-88282753D01*
X108374957Y-88257208D01*
X108326287Y-88249500D01*
X108113713Y-88249500D01*
X108065042Y-88257208D01*
X107903760Y-88282753D01*
X107701585Y-88348444D01*
X107512179Y-88444951D01*
X107340213Y-88569890D01*
X107189890Y-88720213D01*
X107064949Y-88892182D01*
X107060202Y-88901499D01*
X107012227Y-88952293D01*
X106944405Y-88969087D01*
X106878271Y-88946548D01*
X106839234Y-88901495D01*
X106834626Y-88892452D01*
X106795270Y-88838282D01*
X106795269Y-88838282D01*
X106162962Y-89470590D01*
X106145925Y-89407007D01*
X106080099Y-89292993D01*
X105987007Y-89199901D01*
X105872993Y-89134075D01*
X105809409Y-89117037D01*
X106441716Y-88484728D01*
X106387550Y-88445375D01*
X106198217Y-88348904D01*
X105996129Y-88283242D01*
X105786246Y-88250000D01*
X105573754Y-88250000D01*
X105363872Y-88283242D01*
X105363869Y-88283242D01*
X105161782Y-88348904D01*
X104972439Y-88445380D01*
X104918282Y-88484727D01*
X104918282Y-88484728D01*
X105550591Y-89117037D01*
X105487007Y-89134075D01*
X105372993Y-89199901D01*
X105279901Y-89292993D01*
X105214075Y-89407007D01*
X105197037Y-89470591D01*
X104564728Y-88838282D01*
X104564727Y-88838282D01*
X104525380Y-88892440D01*
X104525376Y-88892446D01*
X104520760Y-88901505D01*
X104472781Y-88952297D01*
X104404959Y-88969087D01*
X104338826Y-88946543D01*
X104299794Y-88901493D01*
X104295051Y-88892184D01*
X104295049Y-88892181D01*
X104295048Y-88892179D01*
X104170109Y-88720213D01*
X104019786Y-88569890D01*
X103847820Y-88444951D01*
X103658414Y-88348444D01*
X103658413Y-88348443D01*
X103658412Y-88348443D01*
X103456243Y-88282754D01*
X103456241Y-88282753D01*
X103456240Y-88282753D01*
X103294957Y-88257208D01*
X103246287Y-88249500D01*
X103033713Y-88249500D01*
X102985042Y-88257208D01*
X102823760Y-88282753D01*
X102621585Y-88348444D01*
X102432179Y-88444951D01*
X102260213Y-88569890D01*
X102109890Y-88720213D01*
X101984949Y-88892182D01*
X101980484Y-88900946D01*
X101932509Y-88951742D01*
X101864688Y-88968536D01*
X101798553Y-88945998D01*
X101759516Y-88900946D01*
X101755050Y-88892182D01*
X101630109Y-88720213D01*
X101479786Y-88569890D01*
X101307820Y-88444951D01*
X101118414Y-88348444D01*
X101118413Y-88348443D01*
X101118412Y-88348443D01*
X100916243Y-88282754D01*
X100916241Y-88282753D01*
X100916240Y-88282753D01*
X100754957Y-88257208D01*
X100706287Y-88249500D01*
X100493713Y-88249500D01*
X100445042Y-88257208D01*
X100283760Y-88282753D01*
X100081585Y-88348444D01*
X99892179Y-88444951D01*
X99720213Y-88569890D01*
X99569890Y-88720213D01*
X99444949Y-88892182D01*
X99440484Y-88900946D01*
X99392509Y-88951742D01*
X99324688Y-88968536D01*
X99258553Y-88945998D01*
X99219516Y-88900946D01*
X99215050Y-88892182D01*
X99090109Y-88720213D01*
X98939786Y-88569890D01*
X98767820Y-88444951D01*
X98578414Y-88348444D01*
X98578413Y-88348443D01*
X98578412Y-88348443D01*
X98376243Y-88282754D01*
X98376241Y-88282753D01*
X98376240Y-88282753D01*
X98214957Y-88257208D01*
X98166287Y-88249500D01*
X97953713Y-88249500D01*
X97905042Y-88257208D01*
X97743760Y-88282753D01*
X97541585Y-88348444D01*
X97352179Y-88444951D01*
X97180213Y-88569890D01*
X97029890Y-88720213D01*
X96904949Y-88892182D01*
X96900484Y-88900946D01*
X96852509Y-88951742D01*
X96784688Y-88968536D01*
X96718553Y-88945998D01*
X96679516Y-88900946D01*
X96675050Y-88892182D01*
X96550109Y-88720213D01*
X96399786Y-88569890D01*
X96227820Y-88444951D01*
X96038414Y-88348444D01*
X96038413Y-88348443D01*
X96038412Y-88348443D01*
X95836243Y-88282754D01*
X95836241Y-88282753D01*
X95836240Y-88282753D01*
X95674957Y-88257208D01*
X95626287Y-88249500D01*
X95413713Y-88249500D01*
X95365042Y-88257208D01*
X95203760Y-88282753D01*
X95001585Y-88348444D01*
X94812179Y-88444951D01*
X94640213Y-88569890D01*
X94489890Y-88720213D01*
X94364949Y-88892182D01*
X94360484Y-88900946D01*
X94312509Y-88951742D01*
X94244688Y-88968536D01*
X94178553Y-88945998D01*
X94139516Y-88900946D01*
X94135050Y-88892182D01*
X94010109Y-88720213D01*
X93859786Y-88569890D01*
X93687820Y-88444951D01*
X93498414Y-88348444D01*
X93498413Y-88348443D01*
X93498412Y-88348443D01*
X93296243Y-88282754D01*
X93296241Y-88282753D01*
X93296240Y-88282753D01*
X93134957Y-88257208D01*
X93086287Y-88249500D01*
X92873713Y-88249500D01*
X92825042Y-88257208D01*
X92663760Y-88282753D01*
X92461585Y-88348444D01*
X92272179Y-88444951D01*
X92100213Y-88569890D01*
X91949890Y-88720213D01*
X91824949Y-88892182D01*
X91820484Y-88900946D01*
X91772509Y-88951742D01*
X91704688Y-88968536D01*
X91638553Y-88945998D01*
X91599516Y-88900946D01*
X91595050Y-88892182D01*
X91470109Y-88720213D01*
X91319786Y-88569890D01*
X91147820Y-88444951D01*
X90958414Y-88348444D01*
X90958413Y-88348443D01*
X90958412Y-88348443D01*
X90756243Y-88282754D01*
X90756241Y-88282753D01*
X90756240Y-88282753D01*
X90594957Y-88257208D01*
X90546287Y-88249500D01*
X90333713Y-88249500D01*
X90285042Y-88257208D01*
X90123760Y-88282753D01*
X89921585Y-88348444D01*
X89732179Y-88444951D01*
X89560215Y-88569889D01*
X89446673Y-88683431D01*
X89385350Y-88716915D01*
X89315658Y-88711931D01*
X89259725Y-88670059D01*
X89242810Y-88639082D01*
X89193797Y-88507671D01*
X89193793Y-88507664D01*
X89107547Y-88392455D01*
X89107544Y-88392452D01*
X88992335Y-88306206D01*
X88992328Y-88306202D01*
X88857482Y-88255908D01*
X88857483Y-88255908D01*
X88797883Y-88249501D01*
X88797881Y-88249500D01*
X88797873Y-88249500D01*
X88797864Y-88249500D01*
X87002129Y-88249500D01*
X87002123Y-88249501D01*
X86942516Y-88255908D01*
X86807671Y-88306202D01*
X86807664Y-88306206D01*
X86692455Y-88392452D01*
X86692452Y-88392455D01*
X86606206Y-88507664D01*
X86606202Y-88507671D01*
X86555908Y-88642517D01*
X86549501Y-88702116D01*
X86549500Y-88702135D01*
X82012076Y-88702135D01*
X82009934Y-84426153D01*
X99152000Y-84426153D01*
X99152000Y-84583846D01*
X99182761Y-84738489D01*
X99182764Y-84738501D01*
X99243102Y-84884172D01*
X99243109Y-84884185D01*
X99330710Y-85015288D01*
X99330713Y-85015292D01*
X99442207Y-85126786D01*
X99442211Y-85126789D01*
X99573314Y-85214390D01*
X99573327Y-85214397D01*
X99718998Y-85274735D01*
X99719003Y-85274737D01*
X99873653Y-85305499D01*
X99873656Y-85305500D01*
X99873658Y-85305500D01*
X100031344Y-85305500D01*
X100031345Y-85305499D01*
X100185997Y-85274737D01*
X100331679Y-85214394D01*
X100462789Y-85126789D01*
X100574289Y-85015289D01*
X100661894Y-84884179D01*
X100722237Y-84738497D01*
X100753000Y-84583842D01*
X100753000Y-84426158D01*
X100753000Y-84426155D01*
X100752999Y-84426153D01*
X100727809Y-84299516D01*
X100722237Y-84271503D01*
X100680239Y-84170109D01*
X100661897Y-84125827D01*
X100661890Y-84125814D01*
X100574289Y-83994711D01*
X100574286Y-83994707D01*
X100462792Y-83883213D01*
X100462788Y-83883210D01*
X100331685Y-83795609D01*
X100331672Y-83795602D01*
X100186001Y-83735264D01*
X100185989Y-83735261D01*
X100031345Y-83704500D01*
X100031342Y-83704500D01*
X99873658Y-83704500D01*
X99873655Y-83704500D01*
X99719010Y-83735261D01*
X99718998Y-83735264D01*
X99573327Y-83795602D01*
X99573314Y-83795609D01*
X99442211Y-83883210D01*
X99442207Y-83883213D01*
X99330713Y-83994707D01*
X99330710Y-83994711D01*
X99243109Y-84125814D01*
X99243102Y-84125827D01*
X99182764Y-84271498D01*
X99182761Y-84271510D01*
X99152000Y-84426153D01*
X82009934Y-84426153D01*
X82009236Y-83033713D01*
X125049500Y-83033713D01*
X125049500Y-83246286D01*
X125082753Y-83456239D01*
X125148444Y-83658414D01*
X125244951Y-83847820D01*
X125369890Y-84019786D01*
X125520213Y-84170109D01*
X125692182Y-84295050D01*
X125700946Y-84299516D01*
X125751742Y-84347491D01*
X125768536Y-84415312D01*
X125745998Y-84481447D01*
X125700946Y-84520484D01*
X125692182Y-84524949D01*
X125520213Y-84649890D01*
X125369890Y-84800213D01*
X125244951Y-84972179D01*
X125148444Y-85161585D01*
X125082753Y-85363760D01*
X125049500Y-85573713D01*
X125049500Y-85786286D01*
X125082753Y-85996239D01*
X125148444Y-86198414D01*
X125244951Y-86387820D01*
X125369890Y-86559786D01*
X125520213Y-86710109D01*
X125692182Y-86835050D01*
X125700946Y-86839516D01*
X125751742Y-86887491D01*
X125768536Y-86955312D01*
X125745998Y-87021447D01*
X125700946Y-87060484D01*
X125692182Y-87064949D01*
X125520213Y-87189890D01*
X125369890Y-87340213D01*
X125244951Y-87512179D01*
X125148444Y-87701585D01*
X125082753Y-87903760D01*
X125049500Y-88113713D01*
X125049500Y-88326286D01*
X125078228Y-88507671D01*
X125082754Y-88536243D01*
X125141458Y-88716915D01*
X125148444Y-88738414D01*
X125244951Y-88927820D01*
X125369890Y-89099786D01*
X125520213Y-89250109D01*
X125692179Y-89375048D01*
X125692181Y-89375049D01*
X125692184Y-89375051D01*
X125881588Y-89471557D01*
X126083757Y-89537246D01*
X126293713Y-89570500D01*
X126293714Y-89570500D01*
X126506286Y-89570500D01*
X126506287Y-89570500D01*
X126716243Y-89537246D01*
X126918412Y-89471557D01*
X127107816Y-89375051D01*
X127220760Y-89292993D01*
X127279786Y-89250109D01*
X127279788Y-89250106D01*
X127279792Y-89250104D01*
X127430104Y-89099792D01*
X127430106Y-89099788D01*
X127430109Y-89099786D01*
X127539086Y-88949789D01*
X127555051Y-88927816D01*
X127651557Y-88738412D01*
X127717246Y-88536243D01*
X127750500Y-88326287D01*
X127750500Y-88113713D01*
X127717246Y-87903757D01*
X127651557Y-87701588D01*
X127555051Y-87512184D01*
X127555049Y-87512181D01*
X127555048Y-87512179D01*
X127430109Y-87340213D01*
X127279786Y-87189890D01*
X127107820Y-87064951D01*
X127107115Y-87064591D01*
X127099054Y-87060485D01*
X127048259Y-87012512D01*
X127031463Y-86944692D01*
X127053999Y-86878556D01*
X127099054Y-86839515D01*
X127107816Y-86835051D01*
X127129789Y-86819086D01*
X127279786Y-86710109D01*
X127279788Y-86710106D01*
X127279792Y-86710104D01*
X127430104Y-86559792D01*
X127430106Y-86559788D01*
X127430109Y-86559786D01*
X127555048Y-86387820D01*
X127555047Y-86387820D01*
X127555051Y-86387816D01*
X127651557Y-86198412D01*
X127717246Y-85996243D01*
X127750500Y-85786287D01*
X127750500Y-85573713D01*
X127717246Y-85363757D01*
X127651557Y-85161588D01*
X127555051Y-84972184D01*
X127555049Y-84972181D01*
X127555048Y-84972179D01*
X127430109Y-84800213D01*
X127279786Y-84649890D01*
X127107820Y-84524951D01*
X127107115Y-84524591D01*
X127099054Y-84520485D01*
X127048259Y-84472512D01*
X127031463Y-84404692D01*
X127053999Y-84338556D01*
X127099054Y-84299515D01*
X127107816Y-84295051D01*
X127140234Y-84271498D01*
X127279786Y-84170109D01*
X127279788Y-84170106D01*
X127279792Y-84170104D01*
X127430104Y-84019792D01*
X127430106Y-84019788D01*
X127430109Y-84019786D01*
X127555048Y-83847820D01*
X127555047Y-83847820D01*
X127555051Y-83847816D01*
X127651557Y-83658412D01*
X127717246Y-83456243D01*
X127750500Y-83246287D01*
X127750500Y-83033713D01*
X127717246Y-82823757D01*
X127651557Y-82621588D01*
X127555051Y-82432184D01*
X127555049Y-82432181D01*
X127555048Y-82432179D01*
X127430109Y-82260213D01*
X127316181Y-82146285D01*
X127282696Y-82084962D01*
X127287680Y-82015270D01*
X127329552Y-81959337D01*
X127360529Y-81942422D01*
X127492086Y-81893354D01*
X127492093Y-81893350D01*
X127607187Y-81807190D01*
X127607190Y-81807187D01*
X127693350Y-81692093D01*
X127693354Y-81692086D01*
X127743596Y-81557379D01*
X127743598Y-81557372D01*
X127749999Y-81497844D01*
X127750000Y-81497827D01*
X127750000Y-80850000D01*
X126833012Y-80850000D01*
X126865925Y-80792993D01*
X126900000Y-80665826D01*
X126900000Y-80534174D01*
X126865925Y-80407007D01*
X126833012Y-80350000D01*
X127750000Y-80350000D01*
X127750000Y-79702172D01*
X127749999Y-79702155D01*
X127743598Y-79642627D01*
X127743596Y-79642620D01*
X127693354Y-79507913D01*
X127693350Y-79507906D01*
X127607190Y-79392812D01*
X127607187Y-79392809D01*
X127492093Y-79306649D01*
X127492086Y-79306645D01*
X127357379Y-79256403D01*
X127357372Y-79256401D01*
X127297844Y-79250000D01*
X126650000Y-79250000D01*
X126650000Y-80166988D01*
X126592993Y-80134075D01*
X126465826Y-80100000D01*
X126334174Y-80100000D01*
X126207007Y-80134075D01*
X126150000Y-80166988D01*
X126150000Y-79250000D01*
X125502155Y-79250000D01*
X125442627Y-79256401D01*
X125442620Y-79256403D01*
X125307913Y-79306645D01*
X125307906Y-79306649D01*
X125192812Y-79392809D01*
X125192809Y-79392812D01*
X125106649Y-79507906D01*
X125106645Y-79507913D01*
X125056403Y-79642620D01*
X125056401Y-79642627D01*
X125050000Y-79702155D01*
X125050000Y-80350000D01*
X125966988Y-80350000D01*
X125934075Y-80407007D01*
X125900000Y-80534174D01*
X125900000Y-80665826D01*
X125934075Y-80792993D01*
X125966988Y-80850000D01*
X125050000Y-80850000D01*
X125050000Y-81497844D01*
X125056401Y-81557372D01*
X125056403Y-81557379D01*
X125106645Y-81692086D01*
X125106649Y-81692093D01*
X125192809Y-81807187D01*
X125192812Y-81807190D01*
X125307906Y-81893350D01*
X125307913Y-81893354D01*
X125439470Y-81942422D01*
X125495404Y-81984293D01*
X125519821Y-82049758D01*
X125504969Y-82118031D01*
X125483819Y-82146285D01*
X125369889Y-82260215D01*
X125244951Y-82432179D01*
X125148444Y-82621585D01*
X125082753Y-82823760D01*
X125049500Y-83033713D01*
X82009236Y-83033713D01*
X82008752Y-82068053D01*
X94535700Y-82068053D01*
X94535700Y-82225746D01*
X94566461Y-82380389D01*
X94566464Y-82380401D01*
X94626802Y-82526072D01*
X94626809Y-82526085D01*
X94714410Y-82657188D01*
X94714413Y-82657192D01*
X94825907Y-82768686D01*
X94825911Y-82768689D01*
X94957014Y-82856290D01*
X94957027Y-82856297D01*
X95102698Y-82916635D01*
X95102703Y-82916637D01*
X95257353Y-82947399D01*
X95257356Y-82947400D01*
X95257358Y-82947400D01*
X95415044Y-82947400D01*
X95415045Y-82947399D01*
X95569697Y-82916637D01*
X95572876Y-82915320D01*
X95575388Y-82914280D01*
X95715372Y-82856297D01*
X95715372Y-82856296D01*
X95715379Y-82856294D01*
X95846489Y-82768689D01*
X95957989Y-82657189D01*
X96045594Y-82526079D01*
X96105937Y-82380397D01*
X96136700Y-82225742D01*
X96136700Y-82068058D01*
X96136700Y-82068055D01*
X96136699Y-82068053D01*
X96132598Y-82047435D01*
X96105937Y-81913403D01*
X96100174Y-81899489D01*
X96045597Y-81767727D01*
X96045590Y-81767714D01*
X95957989Y-81636611D01*
X95957986Y-81636607D01*
X95846492Y-81525113D01*
X95846488Y-81525110D01*
X95715385Y-81437509D01*
X95715372Y-81437502D01*
X95569701Y-81377164D01*
X95569689Y-81377161D01*
X95415045Y-81346400D01*
X95415042Y-81346400D01*
X95257358Y-81346400D01*
X95257355Y-81346400D01*
X95102710Y-81377161D01*
X95102698Y-81377164D01*
X94957027Y-81437502D01*
X94957014Y-81437509D01*
X94825911Y-81525110D01*
X94825907Y-81525113D01*
X94714413Y-81636607D01*
X94714410Y-81636611D01*
X94626809Y-81767714D01*
X94626802Y-81767727D01*
X94566464Y-81913398D01*
X94566461Y-81913410D01*
X94535700Y-82068053D01*
X82008752Y-82068053D01*
X82008306Y-81177353D01*
X101819500Y-81177353D01*
X101819500Y-81335046D01*
X101850261Y-81489689D01*
X101850264Y-81489701D01*
X101910602Y-81635372D01*
X101910609Y-81635385D01*
X101998210Y-81766488D01*
X101998213Y-81766492D01*
X102109707Y-81877986D01*
X102109711Y-81877989D01*
X102240814Y-81965590D01*
X102240827Y-81965597D01*
X102360750Y-82015270D01*
X102386503Y-82025937D01*
X102541153Y-82056699D01*
X102541156Y-82056700D01*
X102541158Y-82056700D01*
X102698844Y-82056700D01*
X102698845Y-82056699D01*
X102853497Y-82025937D01*
X102999179Y-81965594D01*
X103130289Y-81877989D01*
X103241789Y-81766489D01*
X103329394Y-81635379D01*
X103389737Y-81489697D01*
X103420500Y-81335042D01*
X103420500Y-81177358D01*
X103420500Y-81177355D01*
X103420499Y-81177353D01*
X103394015Y-81044210D01*
X103389737Y-81022703D01*
X103338297Y-80898514D01*
X103329397Y-80877027D01*
X103329390Y-80877014D01*
X103241789Y-80745911D01*
X103241786Y-80745907D01*
X103130292Y-80634413D01*
X103130288Y-80634410D01*
X102999185Y-80546809D01*
X102999172Y-80546802D01*
X102853501Y-80486464D01*
X102853489Y-80486461D01*
X102698845Y-80455700D01*
X102698842Y-80455700D01*
X102541158Y-80455700D01*
X102541155Y-80455700D01*
X102386510Y-80486461D01*
X102386498Y-80486464D01*
X102240827Y-80546802D01*
X102240814Y-80546809D01*
X102109711Y-80634410D01*
X102109707Y-80634413D01*
X101998213Y-80745907D01*
X101998210Y-80745911D01*
X101910609Y-80877014D01*
X101910602Y-80877027D01*
X101850264Y-81022698D01*
X101850261Y-81022710D01*
X101819500Y-81177353D01*
X82008306Y-81177353D01*
X82007619Y-79805753D01*
X107858500Y-79805753D01*
X107858500Y-79963446D01*
X107889261Y-80118089D01*
X107889264Y-80118101D01*
X107949602Y-80263772D01*
X107949609Y-80263785D01*
X108037210Y-80394888D01*
X108037213Y-80394892D01*
X108148707Y-80506386D01*
X108148711Y-80506389D01*
X108279814Y-80593990D01*
X108279827Y-80593997D01*
X108413369Y-80649311D01*
X108425503Y-80654337D01*
X108580153Y-80685099D01*
X108580156Y-80685100D01*
X108594811Y-80685100D01*
X108661850Y-80704785D01*
X108707605Y-80757589D01*
X108717549Y-80826747D01*
X108697913Y-80877991D01*
X108688609Y-80891914D01*
X108688602Y-80891927D01*
X108628264Y-81037598D01*
X108628261Y-81037610D01*
X108597500Y-81192253D01*
X108597500Y-81349946D01*
X108628261Y-81504589D01*
X108628264Y-81504601D01*
X108688602Y-81650272D01*
X108688609Y-81650285D01*
X108776210Y-81781388D01*
X108776213Y-81781392D01*
X108887707Y-81892886D01*
X108887711Y-81892889D01*
X109018814Y-81980490D01*
X109018827Y-81980497D01*
X109102778Y-82015270D01*
X109164503Y-82040837D01*
X109319153Y-82071599D01*
X109319156Y-82071600D01*
X109319158Y-82071600D01*
X109476844Y-82071600D01*
X109476845Y-82071599D01*
X109631497Y-82040837D01*
X109766424Y-81984949D01*
X109777172Y-81980497D01*
X109777172Y-81980496D01*
X109777179Y-81980494D01*
X109908289Y-81892889D01*
X110019789Y-81781389D01*
X110107394Y-81650279D01*
X110167737Y-81504597D01*
X110198500Y-81349942D01*
X110198500Y-81198853D01*
X110661500Y-81198853D01*
X110661500Y-81356546D01*
X110692261Y-81511189D01*
X110692264Y-81511201D01*
X110752602Y-81656872D01*
X110752609Y-81656885D01*
X110840210Y-81787988D01*
X110840213Y-81787992D01*
X110951707Y-81899486D01*
X110951711Y-81899489D01*
X111082814Y-81987090D01*
X111082827Y-81987097D01*
X111176599Y-82025938D01*
X111228503Y-82047437D01*
X111349973Y-82071599D01*
X111383153Y-82078199D01*
X111383156Y-82078200D01*
X111383158Y-82078200D01*
X111540844Y-82078200D01*
X111540845Y-82078199D01*
X111695497Y-82047437D01*
X111841179Y-81987094D01*
X111938669Y-81921953D01*
X112633500Y-81921953D01*
X112633500Y-82079646D01*
X112664261Y-82234289D01*
X112664264Y-82234301D01*
X112724602Y-82379972D01*
X112724609Y-82379985D01*
X112812210Y-82511088D01*
X112812213Y-82511092D01*
X112923707Y-82622586D01*
X112923711Y-82622589D01*
X113054814Y-82710190D01*
X113054827Y-82710197D01*
X113196034Y-82768686D01*
X113200503Y-82770537D01*
X113355153Y-82801299D01*
X113355156Y-82801300D01*
X113355158Y-82801300D01*
X113512844Y-82801300D01*
X113512845Y-82801299D01*
X113667497Y-82770537D01*
X113813179Y-82710194D01*
X113944289Y-82622589D01*
X114055789Y-82511089D01*
X114143394Y-82379979D01*
X114203737Y-82234297D01*
X114234500Y-82079642D01*
X114234500Y-81921958D01*
X114234500Y-81921955D01*
X114234499Y-81921953D01*
X114207852Y-81787992D01*
X114203737Y-81767303D01*
X114203399Y-81766488D01*
X114143397Y-81621627D01*
X114143390Y-81621614D01*
X114055789Y-81490511D01*
X114055786Y-81490507D01*
X113944292Y-81379013D01*
X113944288Y-81379010D01*
X113813185Y-81291409D01*
X113813172Y-81291402D01*
X113667501Y-81231064D01*
X113667489Y-81231061D01*
X113512845Y-81200300D01*
X113512842Y-81200300D01*
X113355158Y-81200300D01*
X113355155Y-81200300D01*
X113200510Y-81231061D01*
X113200498Y-81231064D01*
X113054827Y-81291402D01*
X113054814Y-81291409D01*
X112923711Y-81379010D01*
X112923707Y-81379013D01*
X112812213Y-81490507D01*
X112812210Y-81490511D01*
X112724609Y-81621614D01*
X112724602Y-81621627D01*
X112664264Y-81767298D01*
X112664261Y-81767310D01*
X112633500Y-81921953D01*
X111938669Y-81921953D01*
X111972289Y-81899489D01*
X111993792Y-81877986D01*
X112043594Y-81828185D01*
X112083786Y-81787992D01*
X112083789Y-81787989D01*
X112171394Y-81656879D01*
X112231737Y-81511197D01*
X112262500Y-81356542D01*
X112262500Y-81198858D01*
X112262500Y-81198855D01*
X112262499Y-81198853D01*
X112242836Y-81100000D01*
X112231737Y-81044203D01*
X112229001Y-81037598D01*
X112171397Y-80898527D01*
X112171390Y-80898514D01*
X112083789Y-80767411D01*
X112083786Y-80767407D01*
X111972292Y-80655913D01*
X111972288Y-80655910D01*
X111841185Y-80568309D01*
X111841172Y-80568302D01*
X111695501Y-80507964D01*
X111695489Y-80507961D01*
X111540845Y-80477200D01*
X111540842Y-80477200D01*
X111383158Y-80477200D01*
X111383155Y-80477200D01*
X111228510Y-80507961D01*
X111228498Y-80507964D01*
X111082827Y-80568302D01*
X111082814Y-80568309D01*
X110951711Y-80655910D01*
X110951707Y-80655913D01*
X110840213Y-80767407D01*
X110840210Y-80767411D01*
X110752609Y-80898514D01*
X110752602Y-80898527D01*
X110692264Y-81044198D01*
X110692261Y-81044210D01*
X110661500Y-81198853D01*
X110198500Y-81198853D01*
X110198500Y-81192258D01*
X110198500Y-81192255D01*
X110198499Y-81192253D01*
X110194337Y-81171328D01*
X110167737Y-81037603D01*
X110161563Y-81022698D01*
X110107397Y-80891927D01*
X110107390Y-80891914D01*
X110019789Y-80760811D01*
X110019786Y-80760807D01*
X109908292Y-80649313D01*
X109908288Y-80649310D01*
X109777185Y-80561709D01*
X109777172Y-80561702D01*
X109631501Y-80501364D01*
X109631489Y-80501361D01*
X109476845Y-80470600D01*
X109476842Y-80470600D01*
X109462189Y-80470600D01*
X109395150Y-80450915D01*
X109349395Y-80398111D01*
X109339451Y-80328953D01*
X109359087Y-80277709D01*
X109368390Y-80263785D01*
X109368390Y-80263784D01*
X109368394Y-80263779D01*
X109428737Y-80118097D01*
X109459500Y-79963442D01*
X109459500Y-79805758D01*
X109459500Y-79805755D01*
X109443047Y-79723043D01*
X109443047Y-79723042D01*
X109428738Y-79651110D01*
X109428737Y-79651103D01*
X109425223Y-79642620D01*
X109368397Y-79505427D01*
X109368390Y-79505414D01*
X109352649Y-79481856D01*
X109331771Y-79415178D01*
X109350256Y-79347798D01*
X109402234Y-79301108D01*
X109431551Y-79291350D01*
X109501497Y-79277437D01*
X109647179Y-79217094D01*
X109778289Y-79129489D01*
X109889789Y-79017989D01*
X109977394Y-78886879D01*
X110037737Y-78741197D01*
X110068500Y-78586542D01*
X110068500Y-78428858D01*
X110068500Y-78428855D01*
X110068499Y-78428853D01*
X110041324Y-78292237D01*
X110037737Y-78274203D01*
X110037735Y-78274198D01*
X109977397Y-78128527D01*
X109977390Y-78128514D01*
X109889789Y-77997411D01*
X109889786Y-77997407D01*
X109778292Y-77885913D01*
X109778288Y-77885910D01*
X109647185Y-77798309D01*
X109647172Y-77798302D01*
X109501501Y-77737964D01*
X109501489Y-77737961D01*
X109346845Y-77707200D01*
X109346842Y-77707200D01*
X109189158Y-77707200D01*
X109189155Y-77707200D01*
X109034510Y-77737961D01*
X109034498Y-77737964D01*
X108888827Y-77798302D01*
X108888814Y-77798309D01*
X108757711Y-77885910D01*
X108757707Y-77885913D01*
X108646213Y-77997407D01*
X108646210Y-77997411D01*
X108558609Y-78128514D01*
X108558602Y-78128527D01*
X108498264Y-78274198D01*
X108498261Y-78274210D01*
X108467500Y-78428853D01*
X108467500Y-78586546D01*
X108498261Y-78741189D01*
X108498264Y-78741201D01*
X108558602Y-78886872D01*
X108558608Y-78886883D01*
X108574351Y-78910444D01*
X108595228Y-78977122D01*
X108576743Y-79044502D01*
X108524764Y-79091191D01*
X108495440Y-79100951D01*
X108425508Y-79114861D01*
X108425498Y-79114864D01*
X108279827Y-79175202D01*
X108279814Y-79175209D01*
X108148711Y-79262810D01*
X108148707Y-79262813D01*
X108037213Y-79374307D01*
X108037210Y-79374311D01*
X107949609Y-79505414D01*
X107949602Y-79505427D01*
X107889264Y-79651098D01*
X107889261Y-79651110D01*
X107858500Y-79805753D01*
X82007619Y-79805753D01*
X82006435Y-77443653D01*
X102999500Y-77443653D01*
X102999500Y-77601346D01*
X103030261Y-77755989D01*
X103030264Y-77756001D01*
X103090602Y-77901672D01*
X103090609Y-77901685D01*
X103178210Y-78032788D01*
X103178213Y-78032792D01*
X103289707Y-78144286D01*
X103289711Y-78144289D01*
X103420814Y-78231890D01*
X103420827Y-78231897D01*
X103534164Y-78278842D01*
X103566503Y-78292237D01*
X103721153Y-78322999D01*
X103721156Y-78323000D01*
X103721158Y-78323000D01*
X103878843Y-78323000D01*
X103906748Y-78317449D01*
X103976340Y-78323676D01*
X104031518Y-78366538D01*
X104052558Y-78414873D01*
X104056261Y-78433492D01*
X104056264Y-78433501D01*
X104116602Y-78579172D01*
X104116609Y-78579185D01*
X104204210Y-78710288D01*
X104204213Y-78710292D01*
X104315707Y-78821786D01*
X104315711Y-78821789D01*
X104446814Y-78909390D01*
X104446827Y-78909397D01*
X104592498Y-78969735D01*
X104592503Y-78969737D01*
X104747153Y-79000499D01*
X104747156Y-79000500D01*
X104747158Y-79000500D01*
X104904844Y-79000500D01*
X104904845Y-79000499D01*
X105059497Y-78969737D01*
X105205179Y-78909394D01*
X105336289Y-78821789D01*
X105447789Y-78710289D01*
X105535394Y-78579179D01*
X105595737Y-78433497D01*
X105626500Y-78278842D01*
X105626500Y-78121158D01*
X105626500Y-78121155D01*
X105626499Y-78121153D01*
X105595738Y-77966510D01*
X105595737Y-77966503D01*
X105568886Y-77901679D01*
X105535397Y-77820827D01*
X105535390Y-77820814D01*
X105447789Y-77689711D01*
X105447786Y-77689707D01*
X105336292Y-77578213D01*
X105336288Y-77578210D01*
X105205185Y-77490609D01*
X105205172Y-77490602D01*
X105059501Y-77430264D01*
X105059489Y-77430261D01*
X104904845Y-77399500D01*
X104904842Y-77399500D01*
X104747158Y-77399500D01*
X104747157Y-77399500D01*
X104719246Y-77405051D01*
X104649655Y-77398822D01*
X104594478Y-77355957D01*
X104573440Y-77307624D01*
X104569737Y-77289003D01*
X104554651Y-77252582D01*
X104509397Y-77143327D01*
X104509390Y-77143314D01*
X104421789Y-77012211D01*
X104421786Y-77012207D01*
X104310292Y-76900713D01*
X104310288Y-76900710D01*
X104179185Y-76813109D01*
X104179172Y-76813102D01*
X104033501Y-76752764D01*
X104033489Y-76752761D01*
X103878845Y-76722000D01*
X103878842Y-76722000D01*
X103721158Y-76722000D01*
X103721155Y-76722000D01*
X103566510Y-76752761D01*
X103566498Y-76752764D01*
X103420827Y-76813102D01*
X103420814Y-76813109D01*
X103289711Y-76900710D01*
X103289707Y-76900713D01*
X103178213Y-77012207D01*
X103178210Y-77012211D01*
X103090609Y-77143314D01*
X103090602Y-77143327D01*
X103030264Y-77288998D01*
X103030261Y-77289010D01*
X102999500Y-77443653D01*
X82006435Y-77443653D01*
X82003492Y-71571653D01*
X90118400Y-71571653D01*
X90118400Y-71729346D01*
X90149161Y-71883989D01*
X90149164Y-71884001D01*
X90209502Y-72029672D01*
X90209509Y-72029685D01*
X90297110Y-72160788D01*
X90297113Y-72160792D01*
X90408607Y-72272286D01*
X90408611Y-72272289D01*
X90539714Y-72359890D01*
X90539727Y-72359897D01*
X90685398Y-72420235D01*
X90685403Y-72420237D01*
X90840053Y-72450999D01*
X90840056Y-72451000D01*
X90840058Y-72451000D01*
X90997744Y-72451000D01*
X90997745Y-72450999D01*
X91152397Y-72420237D01*
X91298079Y-72359894D01*
X91353365Y-72322953D01*
X103673500Y-72322953D01*
X103673500Y-72480646D01*
X103704261Y-72635289D01*
X103704264Y-72635301D01*
X103764602Y-72780972D01*
X103764609Y-72780985D01*
X103852210Y-72912088D01*
X103852213Y-72912092D01*
X103963707Y-73023586D01*
X103963711Y-73023589D01*
X104094814Y-73111190D01*
X104094827Y-73111197D01*
X104230006Y-73167189D01*
X104240503Y-73171537D01*
X104395153Y-73202299D01*
X104395156Y-73202300D01*
X104395158Y-73202300D01*
X104552844Y-73202300D01*
X104552845Y-73202299D01*
X104707497Y-73171537D01*
X104820166Y-73124867D01*
X104853172Y-73111197D01*
X104853172Y-73111196D01*
X104853179Y-73111194D01*
X104984289Y-73023589D01*
X105095789Y-72912089D01*
X105183394Y-72780979D01*
X105192742Y-72758412D01*
X105216253Y-72701650D01*
X105243737Y-72635297D01*
X105264412Y-72531358D01*
X105264413Y-72531353D01*
X105651500Y-72531353D01*
X105651500Y-72689046D01*
X105682261Y-72843689D01*
X105682264Y-72843701D01*
X105742602Y-72989372D01*
X105742609Y-72989385D01*
X105830210Y-73120488D01*
X105830213Y-73120492D01*
X105941705Y-73231984D01*
X105941710Y-73231988D01*
X105956323Y-73241752D01*
X106001129Y-73295363D01*
X106009838Y-73364688D01*
X106001995Y-73392307D01*
X105971264Y-73466498D01*
X105971261Y-73466510D01*
X105940500Y-73621153D01*
X105940500Y-73778846D01*
X105971261Y-73933489D01*
X105971264Y-73933501D01*
X106031602Y-74079172D01*
X106031609Y-74079185D01*
X106119210Y-74210288D01*
X106119213Y-74210292D01*
X106230707Y-74321786D01*
X106230711Y-74321789D01*
X106361814Y-74409390D01*
X106361827Y-74409397D01*
X106506180Y-74469189D01*
X106507503Y-74469737D01*
X106662153Y-74500499D01*
X106662156Y-74500500D01*
X106662158Y-74500500D01*
X106819844Y-74500500D01*
X106819845Y-74500499D01*
X106974497Y-74469737D01*
X107120179Y-74409394D01*
X107251289Y-74321789D01*
X107362789Y-74210289D01*
X107398494Y-74156853D01*
X118107500Y-74156853D01*
X118107500Y-74314546D01*
X118138261Y-74469189D01*
X118138264Y-74469201D01*
X118198602Y-74614872D01*
X118198609Y-74614885D01*
X118286210Y-74745988D01*
X118286213Y-74745992D01*
X118397707Y-74857486D01*
X118397711Y-74857489D01*
X118528814Y-74945090D01*
X118528827Y-74945097D01*
X118674498Y-75005435D01*
X118674503Y-75005437D01*
X118829153Y-75036199D01*
X118829156Y-75036200D01*
X118829158Y-75036200D01*
X118986844Y-75036200D01*
X118986845Y-75036199D01*
X119141497Y-75005437D01*
X119276798Y-74949394D01*
X119287172Y-74945097D01*
X119287172Y-74945096D01*
X119287179Y-74945094D01*
X119418289Y-74857489D01*
X119529789Y-74745989D01*
X119617394Y-74614879D01*
X119677737Y-74469197D01*
X119708500Y-74314542D01*
X119708500Y-74161153D01*
X122206500Y-74161153D01*
X122206500Y-74318846D01*
X122237261Y-74473489D01*
X122237264Y-74473501D01*
X122297602Y-74619172D01*
X122297609Y-74619185D01*
X122385210Y-74750288D01*
X122385213Y-74750292D01*
X122496707Y-74861786D01*
X122496711Y-74861789D01*
X122627814Y-74949390D01*
X122627827Y-74949397D01*
X122684794Y-74972993D01*
X122773503Y-75009737D01*
X122906536Y-75036199D01*
X122928153Y-75040499D01*
X122928156Y-75040500D01*
X122928158Y-75040500D01*
X123085844Y-75040500D01*
X123085845Y-75040499D01*
X123240497Y-75009737D01*
X123386179Y-74949394D01*
X123517289Y-74861789D01*
X123628789Y-74750289D01*
X123716394Y-74619179D01*
X123776737Y-74473497D01*
X123807500Y-74318842D01*
X123807500Y-74161158D01*
X123807500Y-74161155D01*
X123807499Y-74161153D01*
X123800615Y-74126543D01*
X123776737Y-74006503D01*
X123732709Y-73900208D01*
X123716397Y-73860827D01*
X123716390Y-73860814D01*
X123628789Y-73729711D01*
X123628786Y-73729707D01*
X123517292Y-73618213D01*
X123517288Y-73618210D01*
X123386185Y-73530609D01*
X123386172Y-73530602D01*
X123240501Y-73470264D01*
X123240489Y-73470261D01*
X123085845Y-73439500D01*
X123085842Y-73439500D01*
X122928158Y-73439500D01*
X122928155Y-73439500D01*
X122773510Y-73470261D01*
X122773498Y-73470264D01*
X122627827Y-73530602D01*
X122627814Y-73530609D01*
X122496711Y-73618210D01*
X122496707Y-73618213D01*
X122385213Y-73729707D01*
X122385210Y-73729711D01*
X122297609Y-73860814D01*
X122297602Y-73860827D01*
X122237264Y-74006498D01*
X122237261Y-74006510D01*
X122206500Y-74161153D01*
X119708500Y-74161153D01*
X119708500Y-74156858D01*
X119708500Y-74156855D01*
X119708499Y-74156853D01*
X119693585Y-74081875D01*
X119677737Y-74002203D01*
X119649280Y-73933501D01*
X119617397Y-73856527D01*
X119617390Y-73856514D01*
X119529789Y-73725411D01*
X119529786Y-73725407D01*
X119418292Y-73613913D01*
X119418288Y-73613910D01*
X119287185Y-73526309D01*
X119287172Y-73526302D01*
X119141501Y-73465964D01*
X119141489Y-73465961D01*
X118986845Y-73435200D01*
X118986842Y-73435200D01*
X118829158Y-73435200D01*
X118829155Y-73435200D01*
X118674510Y-73465961D01*
X118674498Y-73465964D01*
X118528827Y-73526302D01*
X118528814Y-73526309D01*
X118397711Y-73613910D01*
X118397707Y-73613913D01*
X118286213Y-73725407D01*
X118286210Y-73725411D01*
X118198609Y-73856514D01*
X118198602Y-73856527D01*
X118138264Y-74002198D01*
X118138261Y-74002210D01*
X118107500Y-74156853D01*
X107398494Y-74156853D01*
X107450394Y-74079179D01*
X107453294Y-74072179D01*
X107510735Y-73933501D01*
X107510737Y-73933497D01*
X107541500Y-73778842D01*
X107541500Y-73621158D01*
X107541500Y-73621155D01*
X107541499Y-73621153D01*
X107533601Y-73581447D01*
X107510737Y-73466503D01*
X107510513Y-73465963D01*
X107450397Y-73320827D01*
X107450390Y-73320814D01*
X107362789Y-73189711D01*
X107362786Y-73189707D01*
X107251292Y-73078213D01*
X107251284Y-73078207D01*
X107236676Y-73068446D01*
X107191870Y-73014834D01*
X107183163Y-72945509D01*
X107191005Y-72917892D01*
X107221735Y-72843701D01*
X107221737Y-72843697D01*
X107252500Y-72689042D01*
X107252500Y-72578053D01*
X108857500Y-72578053D01*
X108857500Y-72735746D01*
X108888261Y-72890389D01*
X108888264Y-72890401D01*
X108948602Y-73036072D01*
X108948609Y-73036085D01*
X109036210Y-73167188D01*
X109036213Y-73167192D01*
X109147707Y-73278686D01*
X109147711Y-73278689D01*
X109278814Y-73366290D01*
X109278827Y-73366297D01*
X109359695Y-73399793D01*
X109424503Y-73426637D01*
X109579153Y-73457399D01*
X109579156Y-73457400D01*
X109579158Y-73457400D01*
X109736844Y-73457400D01*
X109736845Y-73457399D01*
X109891497Y-73426637D01*
X110037179Y-73366294D01*
X110168289Y-73278689D01*
X110214994Y-73231984D01*
X110284097Y-73162882D01*
X110285356Y-73164141D01*
X110336134Y-73129535D01*
X110405978Y-73127648D01*
X110465755Y-73163821D01*
X110477371Y-73178633D01*
X110478208Y-73179886D01*
X110478213Y-73179892D01*
X110589707Y-73291386D01*
X110589711Y-73291389D01*
X110720814Y-73378990D01*
X110720827Y-73378997D01*
X110856515Y-73435200D01*
X110866503Y-73439337D01*
X111000350Y-73465961D01*
X111021153Y-73470099D01*
X111021156Y-73470100D01*
X111021158Y-73470100D01*
X111178844Y-73470100D01*
X111178845Y-73470099D01*
X111333497Y-73439337D01*
X111479179Y-73378994D01*
X111610289Y-73291389D01*
X111721789Y-73179889D01*
X111809394Y-73048779D01*
X111814655Y-73036079D01*
X111851214Y-72947816D01*
X111869737Y-72903097D01*
X111900500Y-72748442D01*
X111900500Y-72590758D01*
X111900500Y-72590755D01*
X111900499Y-72590753D01*
X111893634Y-72556239D01*
X111869737Y-72436103D01*
X111869735Y-72436098D01*
X111809397Y-72290427D01*
X111809390Y-72290414D01*
X111721789Y-72159311D01*
X111721786Y-72159307D01*
X111610292Y-72047813D01*
X111610288Y-72047810D01*
X111479185Y-71960209D01*
X111479172Y-71960202D01*
X111333501Y-71899864D01*
X111333489Y-71899861D01*
X111178845Y-71869100D01*
X111178842Y-71869100D01*
X111021158Y-71869100D01*
X111021155Y-71869100D01*
X110866510Y-71899861D01*
X110866498Y-71899864D01*
X110720827Y-71960202D01*
X110720814Y-71960209D01*
X110589711Y-72047810D01*
X110589707Y-72047813D01*
X110473903Y-72163618D01*
X110472649Y-72162364D01*
X110421823Y-72196978D01*
X110351978Y-72198840D01*
X110292214Y-72162646D01*
X110280625Y-72147862D01*
X110279788Y-72146609D01*
X110168292Y-72035113D01*
X110168288Y-72035110D01*
X110037185Y-71947509D01*
X110037172Y-71947502D01*
X109891501Y-71887164D01*
X109891489Y-71887161D01*
X109736845Y-71856400D01*
X109736842Y-71856400D01*
X109579158Y-71856400D01*
X109579155Y-71856400D01*
X109424510Y-71887161D01*
X109424498Y-71887164D01*
X109278827Y-71947502D01*
X109278814Y-71947509D01*
X109147711Y-72035110D01*
X109147707Y-72035113D01*
X109036213Y-72146607D01*
X109036210Y-72146611D01*
X108948609Y-72277714D01*
X108948602Y-72277727D01*
X108888264Y-72423398D01*
X108888261Y-72423410D01*
X108857500Y-72578053D01*
X107252500Y-72578053D01*
X107252500Y-72531358D01*
X107252500Y-72531355D01*
X107252499Y-72531353D01*
X107242412Y-72480642D01*
X107221737Y-72376703D01*
X107214773Y-72359890D01*
X107161397Y-72231027D01*
X107161390Y-72231014D01*
X107073789Y-72099911D01*
X107073786Y-72099907D01*
X106962292Y-71988413D01*
X106962288Y-71988410D01*
X106831185Y-71900809D01*
X106831172Y-71900802D01*
X106685501Y-71840464D01*
X106685489Y-71840461D01*
X106530845Y-71809700D01*
X106530842Y-71809700D01*
X106373158Y-71809700D01*
X106373155Y-71809700D01*
X106218510Y-71840461D01*
X106218498Y-71840464D01*
X106072827Y-71900802D01*
X106072814Y-71900809D01*
X105941711Y-71988410D01*
X105941707Y-71988413D01*
X105830213Y-72099907D01*
X105830210Y-72099911D01*
X105742609Y-72231014D01*
X105742602Y-72231027D01*
X105682264Y-72376698D01*
X105682261Y-72376710D01*
X105651500Y-72531353D01*
X105264413Y-72531353D01*
X105270436Y-72501075D01*
X105270436Y-72501073D01*
X105274500Y-72480643D01*
X105274500Y-72322955D01*
X105274499Y-72322953D01*
X105243738Y-72168306D01*
X105243735Y-72168298D01*
X105183397Y-72022627D01*
X105183390Y-72022614D01*
X105095789Y-71891511D01*
X105095786Y-71891507D01*
X104984292Y-71780013D01*
X104984288Y-71780010D01*
X104853185Y-71692409D01*
X104853172Y-71692402D01*
X104707501Y-71632064D01*
X104707489Y-71632061D01*
X104552845Y-71601300D01*
X104552842Y-71601300D01*
X104395158Y-71601300D01*
X104395155Y-71601300D01*
X104240510Y-71632061D01*
X104240498Y-71632064D01*
X104094827Y-71692402D01*
X104094814Y-71692409D01*
X103963711Y-71780010D01*
X103963707Y-71780013D01*
X103852213Y-71891507D01*
X103852210Y-71891511D01*
X103764609Y-72022614D01*
X103764602Y-72022627D01*
X103704264Y-72168298D01*
X103704262Y-72168306D01*
X103673500Y-72322953D01*
X91353365Y-72322953D01*
X91429189Y-72272289D01*
X91540689Y-72160789D01*
X91628294Y-72029679D01*
X91631218Y-72022621D01*
X91662331Y-71947506D01*
X91688637Y-71883997D01*
X91719400Y-71729342D01*
X91719400Y-71571658D01*
X91719400Y-71571655D01*
X91719399Y-71571653D01*
X91688638Y-71417010D01*
X91688638Y-71417007D01*
X91688637Y-71417006D01*
X91688637Y-71417003D01*
X91647609Y-71317953D01*
X95909200Y-71317953D01*
X95909200Y-71475646D01*
X95934195Y-71601300D01*
X95939963Y-71630297D01*
X95940695Y-71632064D01*
X96000302Y-71775972D01*
X96000309Y-71775985D01*
X96087910Y-71907088D01*
X96087913Y-71907092D01*
X96199407Y-72018586D01*
X96199411Y-72018589D01*
X96330514Y-72106190D01*
X96330527Y-72106197D01*
X96462326Y-72160789D01*
X96476203Y-72166537D01*
X96620542Y-72195248D01*
X96630853Y-72197299D01*
X96630856Y-72197300D01*
X96630858Y-72197300D01*
X96788544Y-72197300D01*
X96798855Y-72195249D01*
X96798855Y-72195248D01*
X96943197Y-72166537D01*
X97088879Y-72106194D01*
X97219989Y-72018589D01*
X97331489Y-71907089D01*
X97419094Y-71775979D01*
X97479437Y-71630297D01*
X97510200Y-71475642D01*
X97510200Y-71317958D01*
X97510200Y-71317955D01*
X97510199Y-71317953D01*
X97479438Y-71163310D01*
X97479437Y-71163303D01*
X97469872Y-71140211D01*
X97419097Y-71017627D01*
X97419090Y-71017614D01*
X97331489Y-70886511D01*
X97331486Y-70886507D01*
X97219992Y-70775013D01*
X97219988Y-70775010D01*
X97088885Y-70687409D01*
X97088872Y-70687402D01*
X96943201Y-70627064D01*
X96943189Y-70627061D01*
X96788545Y-70596300D01*
X96788542Y-70596300D01*
X96630858Y-70596300D01*
X96630855Y-70596300D01*
X96476210Y-70627061D01*
X96476198Y-70627064D01*
X96330527Y-70687402D01*
X96330514Y-70687409D01*
X96199411Y-70775010D01*
X96199407Y-70775013D01*
X96087913Y-70886507D01*
X96087910Y-70886511D01*
X96000309Y-71017614D01*
X96000302Y-71017627D01*
X95939964Y-71163298D01*
X95939961Y-71163310D01*
X95909200Y-71317953D01*
X91647609Y-71317953D01*
X91638446Y-71295831D01*
X91628295Y-71271323D01*
X91628290Y-71271314D01*
X91540689Y-71140211D01*
X91540686Y-71140207D01*
X91429192Y-71028713D01*
X91429188Y-71028710D01*
X91298085Y-70941109D01*
X91298072Y-70941102D01*
X91152401Y-70880764D01*
X91152389Y-70880761D01*
X90997745Y-70850000D01*
X90997742Y-70850000D01*
X90840058Y-70850000D01*
X90840055Y-70850000D01*
X90685410Y-70880761D01*
X90685398Y-70880764D01*
X90539727Y-70941102D01*
X90539714Y-70941109D01*
X90408611Y-71028710D01*
X90408607Y-71028713D01*
X90297113Y-71140207D01*
X90297110Y-71140211D01*
X90209509Y-71271314D01*
X90209502Y-71271327D01*
X90149164Y-71416998D01*
X90149161Y-71417010D01*
X90118400Y-71571653D01*
X82003492Y-71571653D01*
X82000663Y-65927135D01*
X84949500Y-65927135D01*
X84949500Y-67722870D01*
X84949501Y-67722876D01*
X84955908Y-67782483D01*
X85006202Y-67917328D01*
X85006206Y-67917335D01*
X85092452Y-68032544D01*
X85092455Y-68032547D01*
X85207664Y-68118793D01*
X85207671Y-68118797D01*
X85252618Y-68135561D01*
X85342517Y-68169091D01*
X85402127Y-68175500D01*
X85412685Y-68175499D01*
X85479723Y-68195179D01*
X85500372Y-68211818D01*
X86170591Y-68882037D01*
X86107007Y-68899075D01*
X85992993Y-68964901D01*
X85899901Y-69057993D01*
X85834075Y-69172007D01*
X85817037Y-69235591D01*
X85184728Y-68603282D01*
X85184727Y-68603282D01*
X85145380Y-68657439D01*
X85048904Y-68846782D01*
X84983242Y-69048869D01*
X84983242Y-69048872D01*
X84950000Y-69258753D01*
X84950000Y-69471246D01*
X84983242Y-69681127D01*
X84983242Y-69681130D01*
X85048904Y-69883217D01*
X85145375Y-70072550D01*
X85184728Y-70126716D01*
X85817037Y-69494408D01*
X85834075Y-69557993D01*
X85899901Y-69672007D01*
X85992993Y-69765099D01*
X86107007Y-69830925D01*
X86170590Y-69847962D01*
X85538282Y-70480269D01*
X85538282Y-70480270D01*
X85592449Y-70519624D01*
X85781782Y-70616095D01*
X85983870Y-70681757D01*
X86193754Y-70715000D01*
X86406246Y-70715000D01*
X86616127Y-70681757D01*
X86616130Y-70681757D01*
X86818217Y-70616095D01*
X87007554Y-70519622D01*
X87061716Y-70480270D01*
X87061717Y-70480270D01*
X86429408Y-69847962D01*
X86492993Y-69830925D01*
X86607007Y-69765099D01*
X86700099Y-69672007D01*
X86765925Y-69557993D01*
X86782962Y-69494409D01*
X87415270Y-70126717D01*
X87415270Y-70126716D01*
X87454622Y-70072554D01*
X87551095Y-69883217D01*
X87616757Y-69681130D01*
X87616757Y-69681127D01*
X87650000Y-69471246D01*
X87650000Y-69377353D01*
X105665500Y-69377353D01*
X105665500Y-69535046D01*
X105696261Y-69689689D01*
X105696264Y-69689701D01*
X105756602Y-69835372D01*
X105756609Y-69835385D01*
X105844210Y-69966488D01*
X105844213Y-69966492D01*
X105955707Y-70077986D01*
X105955711Y-70077989D01*
X106086814Y-70165590D01*
X106086827Y-70165597D01*
X106232498Y-70225935D01*
X106232503Y-70225937D01*
X106387153Y-70256699D01*
X106387156Y-70256700D01*
X106387158Y-70256700D01*
X106544844Y-70256700D01*
X106544845Y-70256699D01*
X106699497Y-70225937D01*
X106845179Y-70165594D01*
X106976289Y-70077989D01*
X106994625Y-70059653D01*
X109499500Y-70059653D01*
X109499500Y-70217346D01*
X109530261Y-70371989D01*
X109530264Y-70372001D01*
X109590602Y-70517672D01*
X109590609Y-70517685D01*
X109678210Y-70648788D01*
X109678213Y-70648792D01*
X109789707Y-70760286D01*
X109789711Y-70760289D01*
X109920814Y-70847890D01*
X109920827Y-70847897D01*
X110057087Y-70904337D01*
X110066503Y-70908237D01*
X110201552Y-70935100D01*
X110221153Y-70938999D01*
X110221156Y-70939000D01*
X110221158Y-70939000D01*
X110378844Y-70939000D01*
X110378845Y-70938999D01*
X110533497Y-70908237D01*
X110679179Y-70847894D01*
X110810289Y-70760289D01*
X110921789Y-70648789D01*
X110967895Y-70579786D01*
X111012779Y-70512614D01*
X111014100Y-70513497D01*
X111057634Y-70469170D01*
X111125770Y-70453702D01*
X111191453Y-70477527D01*
X111219487Y-70509871D01*
X111221221Y-70508714D01*
X111312210Y-70644888D01*
X111312213Y-70644892D01*
X111423707Y-70756386D01*
X111423711Y-70756389D01*
X111554814Y-70843990D01*
X111554827Y-70843997D01*
X111686546Y-70898556D01*
X111700503Y-70904337D01*
X111855153Y-70935099D01*
X111855156Y-70935100D01*
X111855158Y-70935100D01*
X112012844Y-70935100D01*
X112012845Y-70935099D01*
X112167497Y-70904337D01*
X112303756Y-70847897D01*
X112313172Y-70843997D01*
X112313172Y-70843996D01*
X112313179Y-70843994D01*
X112444289Y-70756389D01*
X112555789Y-70644889D01*
X112643394Y-70513779D01*
X112703737Y-70368097D01*
X112734500Y-70213442D01*
X112734500Y-70055758D01*
X112734500Y-70055755D01*
X112734499Y-70055753D01*
X112704514Y-69905010D01*
X112703737Y-69901103D01*
X112703735Y-69901098D01*
X112643397Y-69755427D01*
X112643390Y-69755414D01*
X112555789Y-69624311D01*
X112555786Y-69624307D01*
X112444292Y-69512813D01*
X112444288Y-69512810D01*
X112313185Y-69425209D01*
X112313172Y-69425202D01*
X112167501Y-69364864D01*
X112167489Y-69364861D01*
X112012845Y-69334100D01*
X112012842Y-69334100D01*
X111855158Y-69334100D01*
X111855155Y-69334100D01*
X111700510Y-69364861D01*
X111700498Y-69364864D01*
X111554827Y-69425202D01*
X111554814Y-69425209D01*
X111423711Y-69512810D01*
X111423707Y-69512813D01*
X111312213Y-69624307D01*
X111312210Y-69624311D01*
X111221221Y-69760486D01*
X111219904Y-69759606D01*
X111176333Y-69803947D01*
X111108192Y-69819395D01*
X111042517Y-69795551D01*
X111014556Y-69763198D01*
X111012779Y-69764386D01*
X110921789Y-69628211D01*
X110921786Y-69628207D01*
X110810292Y-69516713D01*
X110810288Y-69516710D01*
X110679185Y-69429109D01*
X110679172Y-69429102D01*
X110533501Y-69368764D01*
X110533489Y-69368761D01*
X110378845Y-69338000D01*
X110378842Y-69338000D01*
X110221158Y-69338000D01*
X110221155Y-69338000D01*
X110066510Y-69368761D01*
X110066498Y-69368764D01*
X109920827Y-69429102D01*
X109920814Y-69429109D01*
X109789711Y-69516710D01*
X109789707Y-69516713D01*
X109678213Y-69628207D01*
X109678210Y-69628211D01*
X109590609Y-69759314D01*
X109590602Y-69759327D01*
X109530264Y-69904998D01*
X109530261Y-69905010D01*
X109499500Y-70059653D01*
X106994625Y-70059653D01*
X107087789Y-69966489D01*
X107175394Y-69835379D01*
X107235737Y-69689697D01*
X107266500Y-69535042D01*
X107266500Y-69377358D01*
X107266500Y-69377355D01*
X107266499Y-69377353D01*
X107235738Y-69222710D01*
X107235737Y-69222703D01*
X107218707Y-69181588D01*
X107175397Y-69077027D01*
X107175390Y-69077014D01*
X107087789Y-68945911D01*
X107087786Y-68945907D01*
X106976292Y-68834413D01*
X106976288Y-68834410D01*
X106845185Y-68746809D01*
X106845172Y-68746802D01*
X106699501Y-68686464D01*
X106699489Y-68686461D01*
X106544845Y-68655700D01*
X106544842Y-68655700D01*
X106387158Y-68655700D01*
X106387155Y-68655700D01*
X106232510Y-68686461D01*
X106232498Y-68686464D01*
X106086827Y-68746802D01*
X106086814Y-68746809D01*
X105955711Y-68834410D01*
X105955707Y-68834413D01*
X105844213Y-68945907D01*
X105844210Y-68945911D01*
X105756609Y-69077014D01*
X105756602Y-69077027D01*
X105696264Y-69222698D01*
X105696261Y-69222710D01*
X105665500Y-69377353D01*
X87650000Y-69377353D01*
X87650000Y-69258753D01*
X87616757Y-69048872D01*
X87616757Y-69048869D01*
X87551095Y-68846782D01*
X87454624Y-68657449D01*
X87415270Y-68603282D01*
X87415269Y-68603282D01*
X86782962Y-69235590D01*
X86765925Y-69172007D01*
X86700099Y-69057993D01*
X86607007Y-68964901D01*
X86492993Y-68899075D01*
X86429409Y-68882037D01*
X87099627Y-68211818D01*
X87160950Y-68178333D01*
X87187307Y-68175499D01*
X87197872Y-68175499D01*
X87257483Y-68169091D01*
X87347135Y-68135653D01*
X112526500Y-68135653D01*
X112526500Y-68293346D01*
X112557261Y-68447989D01*
X112557264Y-68448001D01*
X112617602Y-68593672D01*
X112617609Y-68593685D01*
X112705210Y-68724788D01*
X112705213Y-68724792D01*
X112816707Y-68836286D01*
X112816711Y-68836289D01*
X112947814Y-68923890D01*
X112947827Y-68923897D01*
X113046821Y-68964901D01*
X113093503Y-68984237D01*
X113230291Y-69011446D01*
X113248153Y-69014999D01*
X113248156Y-69015000D01*
X113248158Y-69015000D01*
X113405844Y-69015000D01*
X113405845Y-69014999D01*
X113560497Y-68984237D01*
X113706179Y-68923894D01*
X113837289Y-68836289D01*
X113871443Y-68802135D01*
X124149500Y-68802135D01*
X124149500Y-70597870D01*
X124149501Y-70597876D01*
X124155908Y-70657483D01*
X124206202Y-70792328D01*
X124206206Y-70792335D01*
X124292452Y-70907544D01*
X124292455Y-70907547D01*
X124407664Y-70993793D01*
X124407671Y-70993797D01*
X124539082Y-71042810D01*
X124595016Y-71084681D01*
X124619433Y-71150145D01*
X124604582Y-71218418D01*
X124583431Y-71246673D01*
X124469889Y-71360215D01*
X124344951Y-71532179D01*
X124248444Y-71721585D01*
X124182753Y-71923760D01*
X124163105Y-72047813D01*
X124149500Y-72133713D01*
X124149500Y-72346287D01*
X124154319Y-72376710D01*
X124178812Y-72531358D01*
X124182754Y-72556243D01*
X124245204Y-72748444D01*
X124248444Y-72758414D01*
X124344951Y-72947820D01*
X124469890Y-73119786D01*
X124620213Y-73270109D01*
X124792182Y-73395050D01*
X124800946Y-73399516D01*
X124851742Y-73447491D01*
X124868536Y-73515312D01*
X124845998Y-73581447D01*
X124800946Y-73620484D01*
X124792182Y-73624949D01*
X124620213Y-73749890D01*
X124469890Y-73900213D01*
X124344951Y-74072179D01*
X124248444Y-74261585D01*
X124182753Y-74463760D01*
X124149500Y-74673713D01*
X124149500Y-74886286D01*
X124182753Y-75096239D01*
X124248444Y-75298414D01*
X124344951Y-75487820D01*
X124469890Y-75659786D01*
X124620213Y-75810109D01*
X124792179Y-75935048D01*
X124792181Y-75935049D01*
X124792184Y-75935051D01*
X124981588Y-76031557D01*
X125183757Y-76097246D01*
X125393713Y-76130500D01*
X125393714Y-76130500D01*
X125606286Y-76130500D01*
X125606287Y-76130500D01*
X125816243Y-76097246D01*
X126018412Y-76031557D01*
X126207816Y-75935051D01*
X126262572Y-75895269D01*
X126379786Y-75810109D01*
X126379788Y-75810106D01*
X126379792Y-75810104D01*
X126530104Y-75659792D01*
X126530106Y-75659788D01*
X126530109Y-75659786D01*
X126615890Y-75541717D01*
X126655051Y-75487816D01*
X126659793Y-75478508D01*
X126707763Y-75427711D01*
X126775583Y-75410911D01*
X126841719Y-75433445D01*
X126880763Y-75478500D01*
X126885373Y-75487547D01*
X126924728Y-75541716D01*
X127557037Y-74909408D01*
X127574075Y-74972993D01*
X127639901Y-75087007D01*
X127732993Y-75180099D01*
X127847007Y-75245925D01*
X127910590Y-75262962D01*
X127278282Y-75895269D01*
X127278282Y-75895270D01*
X127332449Y-75934624D01*
X127521782Y-76031095D01*
X127723870Y-76096757D01*
X127933754Y-76130000D01*
X128146246Y-76130000D01*
X128356127Y-76096757D01*
X128356130Y-76096757D01*
X128558217Y-76031095D01*
X128747554Y-75934622D01*
X128801716Y-75895270D01*
X128801717Y-75895270D01*
X128169408Y-75262962D01*
X128232993Y-75245925D01*
X128347007Y-75180099D01*
X128440099Y-75087007D01*
X128505925Y-74972993D01*
X128522962Y-74909409D01*
X129155270Y-75541717D01*
X129155270Y-75541716D01*
X129194622Y-75487554D01*
X129291095Y-75298217D01*
X129356757Y-75096130D01*
X129356757Y-75096127D01*
X129390000Y-74886246D01*
X129390000Y-74673753D01*
X129356757Y-74463872D01*
X129356757Y-74463869D01*
X129291095Y-74261782D01*
X129194624Y-74072449D01*
X129155270Y-74018282D01*
X129155269Y-74018282D01*
X128522962Y-74650590D01*
X128505925Y-74587007D01*
X128440099Y-74472993D01*
X128347007Y-74379901D01*
X128232993Y-74314075D01*
X128169409Y-74297037D01*
X128801716Y-73664728D01*
X128747547Y-73625373D01*
X128747547Y-73625372D01*
X128738500Y-73620763D01*
X128687706Y-73572788D01*
X128670912Y-73504966D01*
X128693451Y-73438832D01*
X128738508Y-73399793D01*
X128747816Y-73395051D01*
X128827007Y-73337515D01*
X128919786Y-73270109D01*
X128919788Y-73270106D01*
X128919792Y-73270104D01*
X129070104Y-73119792D01*
X129070106Y-73119788D01*
X129070109Y-73119786D01*
X129195048Y-72947820D01*
X129195047Y-72947820D01*
X129195051Y-72947816D01*
X129291557Y-72758412D01*
X129357246Y-72556243D01*
X129390500Y-72346287D01*
X129390500Y-72133713D01*
X129357246Y-71923757D01*
X129291557Y-71721588D01*
X129195051Y-71532184D01*
X129195049Y-71532181D01*
X129195048Y-71532179D01*
X129070109Y-71360213D01*
X128919786Y-71209890D01*
X128747820Y-71084951D01*
X128747115Y-71084591D01*
X128739054Y-71080485D01*
X128688259Y-71032512D01*
X128671463Y-70964692D01*
X128693999Y-70898556D01*
X128739054Y-70859515D01*
X128747816Y-70855051D01*
X128834138Y-70792335D01*
X128919786Y-70730109D01*
X128919788Y-70730106D01*
X128919792Y-70730104D01*
X129070104Y-70579792D01*
X129070106Y-70579788D01*
X129070109Y-70579786D01*
X129195048Y-70407820D01*
X129195047Y-70407820D01*
X129195051Y-70407816D01*
X129291557Y-70218412D01*
X129357246Y-70016243D01*
X129390500Y-69806287D01*
X129390500Y-69593713D01*
X129357246Y-69383757D01*
X129291557Y-69181588D01*
X129195051Y-68992184D01*
X129195049Y-68992181D01*
X129195048Y-68992179D01*
X129070109Y-68820213D01*
X128919786Y-68669890D01*
X128747820Y-68544951D01*
X128558414Y-68448444D01*
X128558413Y-68448443D01*
X128558412Y-68448443D01*
X128356243Y-68382754D01*
X128356241Y-68382753D01*
X128356240Y-68382753D01*
X128194957Y-68357208D01*
X128146287Y-68349500D01*
X127933713Y-68349500D01*
X127885042Y-68357208D01*
X127723760Y-68382753D01*
X127521585Y-68448444D01*
X127332179Y-68544951D01*
X127160215Y-68669889D01*
X127046673Y-68783431D01*
X126985350Y-68816915D01*
X126915658Y-68811931D01*
X126859725Y-68770059D01*
X126842810Y-68739082D01*
X126793797Y-68607671D01*
X126793793Y-68607664D01*
X126707547Y-68492455D01*
X126707544Y-68492452D01*
X126592335Y-68406206D01*
X126592328Y-68406202D01*
X126457482Y-68355908D01*
X126457483Y-68355908D01*
X126397883Y-68349501D01*
X126397881Y-68349500D01*
X126397873Y-68349500D01*
X126397864Y-68349500D01*
X124602129Y-68349500D01*
X124602123Y-68349501D01*
X124542516Y-68355908D01*
X124407671Y-68406202D01*
X124407664Y-68406206D01*
X124292455Y-68492452D01*
X124292452Y-68492455D01*
X124206206Y-68607664D01*
X124206202Y-68607671D01*
X124155908Y-68742517D01*
X124149501Y-68802116D01*
X124149500Y-68802135D01*
X113871443Y-68802135D01*
X113948789Y-68724789D01*
X114036394Y-68593679D01*
X114096737Y-68447997D01*
X114127500Y-68293342D01*
X114127500Y-68135658D01*
X114127500Y-68135655D01*
X114127499Y-68135653D01*
X114106990Y-68032547D01*
X114096737Y-67981003D01*
X114096735Y-67980998D01*
X114036397Y-67835327D01*
X114036390Y-67835314D01*
X113948789Y-67704211D01*
X113948786Y-67704207D01*
X113861532Y-67616953D01*
X119293500Y-67616953D01*
X119293500Y-67774646D01*
X119324261Y-67929289D01*
X119324264Y-67929301D01*
X119384602Y-68074972D01*
X119384609Y-68074985D01*
X119472210Y-68206088D01*
X119472213Y-68206092D01*
X119583707Y-68317586D01*
X119583711Y-68317589D01*
X119714814Y-68405190D01*
X119714827Y-68405197D01*
X119860498Y-68465535D01*
X119860503Y-68465537D01*
X119995813Y-68492452D01*
X120015153Y-68496299D01*
X120015156Y-68496300D01*
X120015158Y-68496300D01*
X120172844Y-68496300D01*
X120172845Y-68496299D01*
X120327497Y-68465537D01*
X120470741Y-68406204D01*
X120473172Y-68405197D01*
X120473172Y-68405196D01*
X120473179Y-68405194D01*
X120604289Y-68317589D01*
X120715789Y-68206089D01*
X120803394Y-68074979D01*
X120863737Y-67929297D01*
X120894500Y-67774642D01*
X120894500Y-67616958D01*
X120894500Y-67616955D01*
X120894499Y-67616953D01*
X120889677Y-67592710D01*
X120863737Y-67462303D01*
X120856471Y-67444761D01*
X120803397Y-67316627D01*
X120803390Y-67316614D01*
X120715789Y-67185511D01*
X120715786Y-67185507D01*
X120604292Y-67074013D01*
X120604288Y-67074010D01*
X120473185Y-66986409D01*
X120473172Y-66986402D01*
X120327501Y-66926064D01*
X120327489Y-66926061D01*
X120172845Y-66895300D01*
X120172842Y-66895300D01*
X120015158Y-66895300D01*
X120015155Y-66895300D01*
X119860510Y-66926061D01*
X119860498Y-66926064D01*
X119714827Y-66986402D01*
X119714814Y-66986409D01*
X119583711Y-67074010D01*
X119583707Y-67074013D01*
X119472213Y-67185507D01*
X119472210Y-67185511D01*
X119384609Y-67316614D01*
X119384602Y-67316627D01*
X119324264Y-67462298D01*
X119324261Y-67462310D01*
X119293500Y-67616953D01*
X113861532Y-67616953D01*
X113837292Y-67592713D01*
X113837288Y-67592710D01*
X113706185Y-67505109D01*
X113706172Y-67505102D01*
X113560501Y-67444764D01*
X113560489Y-67444761D01*
X113405845Y-67414000D01*
X113405842Y-67414000D01*
X113248158Y-67414000D01*
X113248155Y-67414000D01*
X113093510Y-67444761D01*
X113093498Y-67444764D01*
X112947827Y-67505102D01*
X112947814Y-67505109D01*
X112816711Y-67592710D01*
X112816707Y-67592713D01*
X112705213Y-67704207D01*
X112705210Y-67704211D01*
X112617609Y-67835314D01*
X112617602Y-67835327D01*
X112557264Y-67980998D01*
X112557261Y-67981010D01*
X112526500Y-68135653D01*
X87347135Y-68135653D01*
X87392331Y-68118796D01*
X87507546Y-68032546D01*
X87593796Y-67917331D01*
X87644091Y-67782483D01*
X87650500Y-67722873D01*
X87650499Y-65927128D01*
X87644091Y-65867517D01*
X87640021Y-65856606D01*
X87593797Y-65732671D01*
X87593793Y-65732664D01*
X87507547Y-65617455D01*
X87507544Y-65617452D01*
X87392335Y-65531206D01*
X87392328Y-65531202D01*
X87257482Y-65480908D01*
X87257483Y-65480908D01*
X87197883Y-65474501D01*
X87197881Y-65474500D01*
X87197873Y-65474500D01*
X87197864Y-65474500D01*
X85402129Y-65474500D01*
X85402123Y-65474501D01*
X85342516Y-65480908D01*
X85207671Y-65531202D01*
X85207664Y-65531206D01*
X85092455Y-65617452D01*
X85092452Y-65617455D01*
X85006206Y-65732664D01*
X85006202Y-65732671D01*
X84955908Y-65867517D01*
X84949850Y-65923868D01*
X84949501Y-65927123D01*
X84949500Y-65927135D01*
X82000663Y-65927135D01*
X82000507Y-65614883D01*
X82003549Y-65564214D01*
X82000474Y-65549190D01*
X82000467Y-65533857D01*
X81988274Y-65488445D01*
X81986554Y-65481168D01*
X81985190Y-65474500D01*
X81977129Y-65435105D01*
X81970271Y-65421389D01*
X81966295Y-65406580D01*
X81940891Y-65362631D01*
X81918193Y-65317234D01*
X81916331Y-65315134D01*
X81901749Y-65294912D01*
X81900345Y-65292483D01*
X81900344Y-65292482D01*
X81867088Y-65259260D01*
X81864435Y-65256610D01*
X81830758Y-65218632D01*
X81817960Y-65210182D01*
X81807113Y-65199346D01*
X81766385Y-65175858D01*
X81760024Y-65171929D01*
X81720783Y-65146021D01*
X81720775Y-65146017D01*
X81718111Y-65145129D01*
X81716930Y-65144729D01*
X81705684Y-65140853D01*
X81692952Y-65133511D01*
X81654695Y-65123280D01*
X81650545Y-65121850D01*
X81649882Y-65121379D01*
X81644287Y-65119503D01*
X81387449Y-65015188D01*
X81373155Y-65008286D01*
X81258476Y-64943551D01*
X81125529Y-64868504D01*
X81112241Y-64859837D01*
X80884498Y-64689563D01*
X80872419Y-64679263D01*
X80668300Y-64481296D01*
X80657637Y-64469539D01*
X80551071Y-64335745D01*
X80480477Y-64247115D01*
X80471407Y-64234096D01*
X80324113Y-63990859D01*
X80316777Y-63976783D01*
X80201767Y-63716733D01*
X80196289Y-63701835D01*
X80115441Y-63429218D01*
X80111911Y-63413742D01*
X80066550Y-63133020D01*
X80065029Y-63117244D01*
X80055902Y-62833020D01*
X80056409Y-62817161D01*
X80058288Y-62797648D01*
X81099500Y-62797648D01*
X81099500Y-63002351D01*
X81131522Y-63204534D01*
X81194781Y-63399223D01*
X81287715Y-63581613D01*
X81408028Y-63747213D01*
X81552786Y-63891971D01*
X81691499Y-63992750D01*
X81718390Y-64012287D01*
X81834607Y-64071503D01*
X81900776Y-64105218D01*
X81900778Y-64105218D01*
X81900781Y-64105220D01*
X82005137Y-64139127D01*
X82095465Y-64168477D01*
X82196557Y-64184488D01*
X82297648Y-64200500D01*
X82297649Y-64200500D01*
X82502351Y-64200500D01*
X82502352Y-64200500D01*
X82704534Y-64168477D01*
X82899219Y-64105220D01*
X83081610Y-64012287D01*
X83174590Y-63944732D01*
X83247213Y-63891971D01*
X83247215Y-63891968D01*
X83247219Y-63891966D01*
X83391966Y-63747219D01*
X83391968Y-63747215D01*
X83391971Y-63747213D01*
X83444732Y-63674590D01*
X83512287Y-63581610D01*
X83605220Y-63399219D01*
X83668477Y-63204534D01*
X83669568Y-63197648D01*
X127899500Y-63197648D01*
X127899500Y-63402351D01*
X127931522Y-63604534D01*
X127994781Y-63799223D01*
X128087715Y-63981613D01*
X128208028Y-64147213D01*
X128352786Y-64291971D01*
X128507749Y-64404556D01*
X128518390Y-64412287D01*
X128630753Y-64469539D01*
X128700776Y-64505218D01*
X128700778Y-64505218D01*
X128700781Y-64505220D01*
X128795020Y-64535840D01*
X128895465Y-64568477D01*
X128996557Y-64584488D01*
X129097648Y-64600500D01*
X129097649Y-64600500D01*
X129302351Y-64600500D01*
X129302352Y-64600500D01*
X129504534Y-64568477D01*
X129699219Y-64505220D01*
X129881610Y-64412287D01*
X129998294Y-64327512D01*
X130047213Y-64291971D01*
X130047215Y-64291968D01*
X130047219Y-64291966D01*
X130191966Y-64147219D01*
X130191968Y-64147215D01*
X130191971Y-64147213D01*
X130284651Y-64019648D01*
X130312287Y-63981610D01*
X130405220Y-63799219D01*
X130468477Y-63604534D01*
X130500500Y-63402352D01*
X130500500Y-63197648D01*
X130480355Y-63070460D01*
X130468477Y-62995465D01*
X130439127Y-62905137D01*
X130405220Y-62800781D01*
X130405218Y-62800778D01*
X130405218Y-62800776D01*
X130371503Y-62734607D01*
X130312287Y-62618390D01*
X130295631Y-62595465D01*
X130191971Y-62452786D01*
X130047213Y-62308028D01*
X129881613Y-62187715D01*
X129881612Y-62187714D01*
X129881610Y-62187713D01*
X129804603Y-62148476D01*
X129699223Y-62094781D01*
X129504534Y-62031522D01*
X129329995Y-62003878D01*
X129302352Y-61999500D01*
X129097648Y-61999500D01*
X129073329Y-62003351D01*
X128895465Y-62031522D01*
X128700776Y-62094781D01*
X128518386Y-62187715D01*
X128352786Y-62308028D01*
X128208028Y-62452786D01*
X128087715Y-62618386D01*
X127994781Y-62800776D01*
X127931522Y-62995465D01*
X127899500Y-63197648D01*
X83669568Y-63197648D01*
X83700500Y-63002352D01*
X83700500Y-62797648D01*
X83668477Y-62595466D01*
X83664369Y-62582824D01*
X83629603Y-62475824D01*
X83605220Y-62400781D01*
X83605218Y-62400778D01*
X83605218Y-62400776D01*
X83557188Y-62306514D01*
X83512287Y-62218390D01*
X83493299Y-62192255D01*
X83391971Y-62052786D01*
X83247213Y-61908028D01*
X83081613Y-61787715D01*
X83081612Y-61787714D01*
X83081610Y-61787713D01*
X83024653Y-61758691D01*
X82899223Y-61694781D01*
X82704534Y-61631522D01*
X82529995Y-61603878D01*
X82502352Y-61599500D01*
X82297648Y-61599500D01*
X82273329Y-61603351D01*
X82095465Y-61631522D01*
X81900776Y-61694781D01*
X81718386Y-61787715D01*
X81552786Y-61908028D01*
X81408028Y-62052786D01*
X81287715Y-62218386D01*
X81194781Y-62400776D01*
X81131522Y-62595465D01*
X81099500Y-62797648D01*
X80058288Y-62797648D01*
X80083666Y-62534099D01*
X80086191Y-62518458D01*
X80149384Y-62241205D01*
X80153893Y-62225991D01*
X80153946Y-62225847D01*
X80251993Y-61959067D01*
X80258399Y-61944577D01*
X80389786Y-61692388D01*
X80398004Y-61678814D01*
X80560532Y-61445476D01*
X80570406Y-61433073D01*
X80761427Y-61222393D01*
X80772804Y-61211357D01*
X80805788Y-61183224D01*
X80884000Y-61116513D01*
X80989154Y-61026823D01*
X81001865Y-61017316D01*
X81034278Y-60996168D01*
X81240013Y-60861933D01*
X81253826Y-60854133D01*
X81509885Y-60730443D01*
X81524562Y-60724478D01*
X81794337Y-60634507D01*
X81809662Y-60630465D01*
X82088713Y-60575696D01*
X82104445Y-60573644D01*
X82388184Y-60554974D01*
X82404041Y-60554948D01*
X82687856Y-60572680D01*
X82703602Y-60574682D01*
X82982809Y-60628522D01*
X82998170Y-60632519D01*
X83099342Y-60665888D01*
X83268222Y-60721589D01*
X83282932Y-60727510D01*
X83539397Y-60850353D01*
X83553227Y-60858102D01*
X83791898Y-61012700D01*
X83804641Y-61022165D01*
X84021595Y-61205979D01*
X84033024Y-61216994D01*
X84224719Y-61427017D01*
X84234647Y-61439400D01*
X84397944Y-61672198D01*
X84406203Y-61685740D01*
X84538422Y-61937488D01*
X84544888Y-61951985D01*
X84643919Y-62218713D01*
X84646324Y-62225847D01*
X84646887Y-62227703D01*
X84660016Y-62276311D01*
X84663436Y-62282209D01*
X84665483Y-62288948D01*
X84665562Y-62289125D01*
X84695639Y-62337823D01*
X84697366Y-62340706D01*
X84726135Y-62390307D01*
X84731116Y-62395268D01*
X84734810Y-62401249D01*
X84777700Y-62441666D01*
X84778907Y-62442869D01*
X84802136Y-62466005D01*
X84819507Y-62483307D01*
X84825604Y-62486811D01*
X84830718Y-62491630D01*
X84882601Y-62519567D01*
X84884078Y-62520416D01*
X84894143Y-62526200D01*
X84933766Y-62548971D01*
X84940565Y-62550778D01*
X84946750Y-62554109D01*
X85004118Y-62567671D01*
X85061128Y-62582825D01*
X85068158Y-62582810D01*
X85074999Y-62584428D01*
X85133929Y-62582679D01*
X126254353Y-62500591D01*
X126272772Y-62501931D01*
X126291811Y-62504752D01*
X126291818Y-62504753D01*
X126322284Y-62501243D01*
X126329237Y-62500442D01*
X126366891Y-62500367D01*
X126394406Y-62492934D01*
X126403609Y-62491874D01*
X126403612Y-62491873D01*
X126422736Y-62489671D01*
X126457759Y-62475824D01*
X126494117Y-62466005D01*
X126518777Y-62451701D01*
X126545290Y-62441220D01*
X126569917Y-62422947D01*
X126581573Y-62415278D01*
X126608113Y-62399886D01*
X126628232Y-62379685D01*
X126651128Y-62362700D01*
X126674534Y-62333198D01*
X126701113Y-62306514D01*
X126710709Y-62289815D01*
X126721070Y-62274545D01*
X126733038Y-62259462D01*
X126745238Y-62231305D01*
X126746803Y-62227845D01*
X126748967Y-62223244D01*
X126766777Y-62192255D01*
X126770972Y-62176466D01*
X126775735Y-62166344D01*
X126776293Y-62165713D01*
X126777192Y-62163350D01*
X126781494Y-62154809D01*
X126899583Y-61920344D01*
X126906718Y-61908004D01*
X127074259Y-61653329D01*
X127082777Y-61641877D01*
X127278508Y-61408170D01*
X127288297Y-61397766D01*
X127319973Y-61367763D01*
X127509615Y-61188135D01*
X127520513Y-61178944D01*
X127764488Y-60996166D01*
X127776398Y-60988273D01*
X127782294Y-60984837D01*
X128039774Y-60834786D01*
X128052499Y-60828323D01*
X128331792Y-60706157D01*
X128345175Y-60701201D01*
X128636655Y-60611987D01*
X128650535Y-60608600D01*
X128945235Y-60554453D01*
X128950352Y-60553512D01*
X128964515Y-60551746D01*
X129268698Y-60531522D01*
X129282956Y-60531398D01*
X129587442Y-60546307D01*
G37*
%TD.AperFunction*%
%TD*%
M02*
