M48
; DRILL file KiCad 10.0.3 date 2026-07-03T22:32:50
; FORMAT={-:-/ absolute / metric / decimal}
; #@! TF.CreationDate,2026-07-03T22:32:50+05:30
; #@! TF.GenerationSoftware,Kicad,Pcbnew,10.0.3
; #@! TF.FileFunction,Plated,1,4,PTH
FMAT,2
METRIC
; #@! TA.AperFunction,Plated,PTH,ViaDrill
T1C0.300
; #@! TA.AperFunction,Plated,PTH,ComponentDrill
T2C1.000
%
G90
G05
T1
X90.919Y-71.65
X95.336Y-82.147
X96.71Y-71.397
X99.953Y-84.505
X102.62Y-81.256
X103.8Y-77.522
X104.474Y-72.402
X104.826Y-78.2
X106.452Y-72.61
X106.466Y-69.456
X106.741Y-73.7
X108.659Y-79.885
X109.268Y-78.508
X109.398Y-81.271
X109.658Y-72.657
X110.3Y-70.138
X111.1Y-72.67
X111.462Y-81.278
X111.934Y-70.135
X113.205Y-75.632
X113.327Y-68.215
X113.434Y-82.001
X118.908Y-74.236
X120.094Y-67.696
X123.007Y-74.24
T2
X86.3Y-66.825
X86.3Y-69.365
X87.9Y-89.6
X90.44Y-89.6
X92.98Y-89.6
X95.52Y-89.6
X98.06Y-89.6
X100.6Y-89.6
X103.14Y-89.6
X105.68Y-89.6
X108.22Y-89.6
X112.9Y-89.3
X115.44Y-89.3
X117.98Y-89.3
X120.52Y-89.3
X125.5Y-69.7
X125.5Y-72.24
X125.5Y-74.78
X126.4Y-80.6
X126.4Y-83.14
X126.4Y-85.68
X126.4Y-88.22
X128.04Y-69.7
X128.04Y-72.24
X128.04Y-74.78
M30
