%TF.GenerationSoftware,KiCad,Pcbnew,10.0.3*%
%TF.CreationDate,2026-07-03T22:31:39+05:30*%
%TF.ProjectId,MCU data logger,4d435520-6461-4746-9120-6c6f67676572,version1*%
%TF.SameCoordinates,Original*%
%TF.FileFunction,Legend,Top*%
%TF.FilePolarity,Positive*%
%FSLAX46Y46*%
G04 Gerber Fmt 4.6, Leading zero omitted, Abs format (unit mm)*
G04 Created by KiCad (PCBNEW 10.0.3) date 2026-07-03 22:31:39*
%MOMM*%
%LPD*%
G01*
G04 APERTURE LIST*
%ADD10C,0.150000*%
%ADD11C,0.105180*%
%ADD12C,0.120000*%
%ADD13C,0.152400*%
%ADD14C,0.254000*%
%ADD15C,0.127000*%
%ADD16C,0.200000*%
G04 APERTURE END LIST*
D10*
X119904819Y-80079166D02*
X119428628Y-80412499D01*
X119904819Y-80650594D02*
X118904819Y-80650594D01*
X118904819Y-80650594D02*
X118904819Y-80269642D01*
X118904819Y-80269642D02*
X118952438Y-80174404D01*
X118952438Y-80174404D02*
X119000057Y-80126785D01*
X119000057Y-80126785D02*
X119095295Y-80079166D01*
X119095295Y-80079166D02*
X119238152Y-80079166D01*
X119238152Y-80079166D02*
X119333390Y-80126785D01*
X119333390Y-80126785D02*
X119381009Y-80174404D01*
X119381009Y-80174404D02*
X119428628Y-80269642D01*
X119428628Y-80269642D02*
X119428628Y-80650594D01*
X119000057Y-79698213D02*
X118952438Y-79650594D01*
X118952438Y-79650594D02*
X118904819Y-79555356D01*
X118904819Y-79555356D02*
X118904819Y-79317261D01*
X118904819Y-79317261D02*
X118952438Y-79222023D01*
X118952438Y-79222023D02*
X119000057Y-79174404D01*
X119000057Y-79174404D02*
X119095295Y-79126785D01*
X119095295Y-79126785D02*
X119190533Y-79126785D01*
X119190533Y-79126785D02*
X119333390Y-79174404D01*
X119333390Y-79174404D02*
X119904819Y-79745832D01*
X119904819Y-79745832D02*
X119904819Y-79126785D01*
X114123809Y-87278628D02*
X114123809Y-87754819D01*
X113790476Y-86754819D02*
X114123809Y-87278628D01*
X114123809Y-87278628D02*
X114457142Y-86754819D01*
X114742857Y-86850057D02*
X114790476Y-86802438D01*
X114790476Y-86802438D02*
X114885714Y-86754819D01*
X114885714Y-86754819D02*
X115123809Y-86754819D01*
X115123809Y-86754819D02*
X115219047Y-86802438D01*
X115219047Y-86802438D02*
X115266666Y-86850057D01*
X115266666Y-86850057D02*
X115314285Y-86945295D01*
X115314285Y-86945295D02*
X115314285Y-87040533D01*
X115314285Y-87040533D02*
X115266666Y-87183390D01*
X115266666Y-87183390D02*
X114695238Y-87754819D01*
X114695238Y-87754819D02*
X115314285Y-87754819D01*
X118924405Y-67504819D02*
X118924405Y-66504819D01*
X118924405Y-66504819D02*
X119162500Y-66504819D01*
X119162500Y-66504819D02*
X119305357Y-66552438D01*
X119305357Y-66552438D02*
X119400595Y-66647676D01*
X119400595Y-66647676D02*
X119448214Y-66742914D01*
X119448214Y-66742914D02*
X119495833Y-66933390D01*
X119495833Y-66933390D02*
X119495833Y-67076247D01*
X119495833Y-67076247D02*
X119448214Y-67266723D01*
X119448214Y-67266723D02*
X119400595Y-67361961D01*
X119400595Y-67361961D02*
X119305357Y-67457200D01*
X119305357Y-67457200D02*
X119162500Y-67504819D01*
X119162500Y-67504819D02*
X118924405Y-67504819D01*
X120448214Y-67504819D02*
X119876786Y-67504819D01*
X120162500Y-67504819D02*
X120162500Y-66504819D01*
X120162500Y-66504819D02*
X120067262Y-66647676D01*
X120067262Y-66647676D02*
X119972024Y-66742914D01*
X119972024Y-66742914D02*
X119876786Y-66790533D01*
X84704819Y-85338094D02*
X83704819Y-85338094D01*
X83704819Y-85338094D02*
X83704819Y-85099999D01*
X83704819Y-85099999D02*
X83752438Y-84957142D01*
X83752438Y-84957142D02*
X83847676Y-84861904D01*
X83847676Y-84861904D02*
X83942914Y-84814285D01*
X83942914Y-84814285D02*
X84133390Y-84766666D01*
X84133390Y-84766666D02*
X84276247Y-84766666D01*
X84276247Y-84766666D02*
X84466723Y-84814285D01*
X84466723Y-84814285D02*
X84561961Y-84861904D01*
X84561961Y-84861904D02*
X84657200Y-84957142D01*
X84657200Y-84957142D02*
X84704819Y-85099999D01*
X84704819Y-85099999D02*
X84704819Y-85338094D01*
X83800057Y-84385713D02*
X83752438Y-84338094D01*
X83752438Y-84338094D02*
X83704819Y-84242856D01*
X83704819Y-84242856D02*
X83704819Y-84004761D01*
X83704819Y-84004761D02*
X83752438Y-83909523D01*
X83752438Y-83909523D02*
X83800057Y-83861904D01*
X83800057Y-83861904D02*
X83895295Y-83814285D01*
X83895295Y-83814285D02*
X83990533Y-83814285D01*
X83990533Y-83814285D02*
X84133390Y-83861904D01*
X84133390Y-83861904D02*
X84704819Y-84433332D01*
X84704819Y-84433332D02*
X84704819Y-83814285D01*
X119804819Y-69679166D02*
X119328628Y-70012499D01*
X119804819Y-70250594D02*
X118804819Y-70250594D01*
X118804819Y-70250594D02*
X118804819Y-69869642D01*
X118804819Y-69869642D02*
X118852438Y-69774404D01*
X118852438Y-69774404D02*
X118900057Y-69726785D01*
X118900057Y-69726785D02*
X118995295Y-69679166D01*
X118995295Y-69679166D02*
X119138152Y-69679166D01*
X119138152Y-69679166D02*
X119233390Y-69726785D01*
X119233390Y-69726785D02*
X119281009Y-69774404D01*
X119281009Y-69774404D02*
X119328628Y-69869642D01*
X119328628Y-69869642D02*
X119328628Y-70250594D01*
X119138152Y-68822023D02*
X119804819Y-68822023D01*
X118757200Y-69060118D02*
X119471485Y-69298213D01*
X119471485Y-69298213D02*
X119471485Y-68679166D01*
X85514285Y-64376009D02*
X85657142Y-64423628D01*
X85657142Y-64423628D02*
X85704761Y-64471247D01*
X85704761Y-64471247D02*
X85752380Y-64566485D01*
X85752380Y-64566485D02*
X85752380Y-64709342D01*
X85752380Y-64709342D02*
X85704761Y-64804580D01*
X85704761Y-64804580D02*
X85657142Y-64852200D01*
X85657142Y-64852200D02*
X85561904Y-64899819D01*
X85561904Y-64899819D02*
X85180952Y-64899819D01*
X85180952Y-64899819D02*
X85180952Y-63899819D01*
X85180952Y-63899819D02*
X85514285Y-63899819D01*
X85514285Y-63899819D02*
X85609523Y-63947438D01*
X85609523Y-63947438D02*
X85657142Y-63995057D01*
X85657142Y-63995057D02*
X85704761Y-64090295D01*
X85704761Y-64090295D02*
X85704761Y-64185533D01*
X85704761Y-64185533D02*
X85657142Y-64280771D01*
X85657142Y-64280771D02*
X85609523Y-64328390D01*
X85609523Y-64328390D02*
X85514285Y-64376009D01*
X85514285Y-64376009D02*
X85180952Y-64376009D01*
X86038095Y-63899819D02*
X86609523Y-63899819D01*
X86323809Y-64899819D02*
X86323809Y-63899819D01*
X87466666Y-64899819D02*
X86895238Y-64899819D01*
X87180952Y-64899819D02*
X87180952Y-63899819D01*
X87180952Y-63899819D02*
X87085714Y-64042676D01*
X87085714Y-64042676D02*
X86990476Y-64137914D01*
X86990476Y-64137914D02*
X86895238Y-64185533D01*
D11*
X106858901Y-67542355D02*
X106858901Y-68223523D01*
X106858901Y-68223523D02*
X106898970Y-68303660D01*
X106898970Y-68303660D02*
X106939038Y-68343729D01*
X106939038Y-68343729D02*
X107019176Y-68383797D01*
X107019176Y-68383797D02*
X107179450Y-68383797D01*
X107179450Y-68383797D02*
X107259588Y-68343729D01*
X107259588Y-68343729D02*
X107299656Y-68303660D01*
X107299656Y-68303660D02*
X107339725Y-68223523D01*
X107339725Y-68223523D02*
X107339725Y-67542355D01*
X108181167Y-68383797D02*
X107700343Y-68383797D01*
X107940755Y-68383797D02*
X107940755Y-67542355D01*
X107940755Y-67542355D02*
X107860618Y-67662561D01*
X107860618Y-67662561D02*
X107780481Y-67742699D01*
X107780481Y-67742699D02*
X107700343Y-67782767D01*
D10*
X126436666Y-66774819D02*
X126436666Y-67489104D01*
X126436666Y-67489104D02*
X126389047Y-67631961D01*
X126389047Y-67631961D02*
X126293809Y-67727200D01*
X126293809Y-67727200D02*
X126150952Y-67774819D01*
X126150952Y-67774819D02*
X126055714Y-67774819D01*
X127341428Y-67108152D02*
X127341428Y-67774819D01*
X127103333Y-66727200D02*
X126865238Y-67441485D01*
X126865238Y-67441485D02*
X127484285Y-67441485D01*
X105979580Y-84066666D02*
X106027200Y-84114285D01*
X106027200Y-84114285D02*
X106074819Y-84257142D01*
X106074819Y-84257142D02*
X106074819Y-84352380D01*
X106074819Y-84352380D02*
X106027200Y-84495237D01*
X106027200Y-84495237D02*
X105931961Y-84590475D01*
X105931961Y-84590475D02*
X105836723Y-84638094D01*
X105836723Y-84638094D02*
X105646247Y-84685713D01*
X105646247Y-84685713D02*
X105503390Y-84685713D01*
X105503390Y-84685713D02*
X105312914Y-84638094D01*
X105312914Y-84638094D02*
X105217676Y-84590475D01*
X105217676Y-84590475D02*
X105122438Y-84495237D01*
X105122438Y-84495237D02*
X105074819Y-84352380D01*
X105074819Y-84352380D02*
X105074819Y-84257142D01*
X105074819Y-84257142D02*
X105122438Y-84114285D01*
X105122438Y-84114285D02*
X105170057Y-84066666D01*
X105074819Y-83733332D02*
X105074819Y-83114285D01*
X105074819Y-83114285D02*
X105455771Y-83447618D01*
X105455771Y-83447618D02*
X105455771Y-83304761D01*
X105455771Y-83304761D02*
X105503390Y-83209523D01*
X105503390Y-83209523D02*
X105551009Y-83161904D01*
X105551009Y-83161904D02*
X105646247Y-83114285D01*
X105646247Y-83114285D02*
X105884342Y-83114285D01*
X105884342Y-83114285D02*
X105979580Y-83161904D01*
X105979580Y-83161904D02*
X106027200Y-83209523D01*
X106027200Y-83209523D02*
X106074819Y-83304761D01*
X106074819Y-83304761D02*
X106074819Y-83590475D01*
X106074819Y-83590475D02*
X106027200Y-83685713D01*
X106027200Y-83685713D02*
X105979580Y-83733332D01*
X93643095Y-78722819D02*
X93643095Y-79532342D01*
X93643095Y-79532342D02*
X93690714Y-79627580D01*
X93690714Y-79627580D02*
X93738333Y-79675200D01*
X93738333Y-79675200D02*
X93833571Y-79722819D01*
X93833571Y-79722819D02*
X94024047Y-79722819D01*
X94024047Y-79722819D02*
X94119285Y-79675200D01*
X94119285Y-79675200D02*
X94166904Y-79627580D01*
X94166904Y-79627580D02*
X94214523Y-79532342D01*
X94214523Y-79532342D02*
X94214523Y-78722819D01*
X94643095Y-78818057D02*
X94690714Y-78770438D01*
X94690714Y-78770438D02*
X94785952Y-78722819D01*
X94785952Y-78722819D02*
X95024047Y-78722819D01*
X95024047Y-78722819D02*
X95119285Y-78770438D01*
X95119285Y-78770438D02*
X95166904Y-78818057D01*
X95166904Y-78818057D02*
X95214523Y-78913295D01*
X95214523Y-78913295D02*
X95214523Y-79008533D01*
X95214523Y-79008533D02*
X95166904Y-79151390D01*
X95166904Y-79151390D02*
X94595476Y-79722819D01*
X94595476Y-79722819D02*
X95214523Y-79722819D01*
X109974819Y-89633333D02*
X110689104Y-89633333D01*
X110689104Y-89633333D02*
X110831961Y-89680952D01*
X110831961Y-89680952D02*
X110927200Y-89776190D01*
X110927200Y-89776190D02*
X110974819Y-89919047D01*
X110974819Y-89919047D02*
X110974819Y-90014285D01*
X110070057Y-89204761D02*
X110022438Y-89157142D01*
X110022438Y-89157142D02*
X109974819Y-89061904D01*
X109974819Y-89061904D02*
X109974819Y-88823809D01*
X109974819Y-88823809D02*
X110022438Y-88728571D01*
X110022438Y-88728571D02*
X110070057Y-88680952D01*
X110070057Y-88680952D02*
X110165295Y-88633333D01*
X110165295Y-88633333D02*
X110260533Y-88633333D01*
X110260533Y-88633333D02*
X110403390Y-88680952D01*
X110403390Y-88680952D02*
X110974819Y-89252380D01*
X110974819Y-89252380D02*
X110974819Y-88633333D01*
X94238095Y-70254819D02*
X94238095Y-71064342D01*
X94238095Y-71064342D02*
X94285714Y-71159580D01*
X94285714Y-71159580D02*
X94333333Y-71207200D01*
X94333333Y-71207200D02*
X94428571Y-71254819D01*
X94428571Y-71254819D02*
X94619047Y-71254819D01*
X94619047Y-71254819D02*
X94714285Y-71207200D01*
X94714285Y-71207200D02*
X94761904Y-71159580D01*
X94761904Y-71159580D02*
X94809523Y-71064342D01*
X94809523Y-71064342D02*
X94809523Y-70254819D01*
X95714285Y-70588152D02*
X95714285Y-71254819D01*
X95476190Y-70207200D02*
X95238095Y-70921485D01*
X95238095Y-70921485D02*
X95857142Y-70921485D01*
X84974819Y-89933333D02*
X85689104Y-89933333D01*
X85689104Y-89933333D02*
X85831961Y-89980952D01*
X85831961Y-89980952D02*
X85927200Y-90076190D01*
X85927200Y-90076190D02*
X85974819Y-90219047D01*
X85974819Y-90219047D02*
X85974819Y-90314285D01*
X84974819Y-89552380D02*
X84974819Y-88933333D01*
X84974819Y-88933333D02*
X85355771Y-89266666D01*
X85355771Y-89266666D02*
X85355771Y-89123809D01*
X85355771Y-89123809D02*
X85403390Y-89028571D01*
X85403390Y-89028571D02*
X85451009Y-88980952D01*
X85451009Y-88980952D02*
X85546247Y-88933333D01*
X85546247Y-88933333D02*
X85784342Y-88933333D01*
X85784342Y-88933333D02*
X85879580Y-88980952D01*
X85879580Y-88980952D02*
X85927200Y-89028571D01*
X85927200Y-89028571D02*
X85974819Y-89123809D01*
X85974819Y-89123809D02*
X85974819Y-89409523D01*
X85974819Y-89409523D02*
X85927200Y-89504761D01*
X85927200Y-89504761D02*
X85879580Y-89552380D01*
X119904819Y-74779166D02*
X119428628Y-75112499D01*
X119904819Y-75350594D02*
X118904819Y-75350594D01*
X118904819Y-75350594D02*
X118904819Y-74969642D01*
X118904819Y-74969642D02*
X118952438Y-74874404D01*
X118952438Y-74874404D02*
X119000057Y-74826785D01*
X119000057Y-74826785D02*
X119095295Y-74779166D01*
X119095295Y-74779166D02*
X119238152Y-74779166D01*
X119238152Y-74779166D02*
X119333390Y-74826785D01*
X119333390Y-74826785D02*
X119381009Y-74874404D01*
X119381009Y-74874404D02*
X119428628Y-74969642D01*
X119428628Y-74969642D02*
X119428628Y-75350594D01*
X118904819Y-74445832D02*
X118904819Y-73826785D01*
X118904819Y-73826785D02*
X119285771Y-74160118D01*
X119285771Y-74160118D02*
X119285771Y-74017261D01*
X119285771Y-74017261D02*
X119333390Y-73922023D01*
X119333390Y-73922023D02*
X119381009Y-73874404D01*
X119381009Y-73874404D02*
X119476247Y-73826785D01*
X119476247Y-73826785D02*
X119714342Y-73826785D01*
X119714342Y-73826785D02*
X119809580Y-73874404D01*
X119809580Y-73874404D02*
X119857200Y-73922023D01*
X119857200Y-73922023D02*
X119904819Y-74017261D01*
X119904819Y-74017261D02*
X119904819Y-74302975D01*
X119904819Y-74302975D02*
X119857200Y-74398213D01*
X119857200Y-74398213D02*
X119809580Y-74445832D01*
X88604819Y-84754166D02*
X88128628Y-85087499D01*
X88604819Y-85325594D02*
X87604819Y-85325594D01*
X87604819Y-85325594D02*
X87604819Y-84944642D01*
X87604819Y-84944642D02*
X87652438Y-84849404D01*
X87652438Y-84849404D02*
X87700057Y-84801785D01*
X87700057Y-84801785D02*
X87795295Y-84754166D01*
X87795295Y-84754166D02*
X87938152Y-84754166D01*
X87938152Y-84754166D02*
X88033390Y-84801785D01*
X88033390Y-84801785D02*
X88081009Y-84849404D01*
X88081009Y-84849404D02*
X88128628Y-84944642D01*
X88128628Y-84944642D02*
X88128628Y-85325594D01*
X87604819Y-84420832D02*
X87604819Y-83754166D01*
X87604819Y-83754166D02*
X88604819Y-84182737D01*
X83978628Y-77676190D02*
X84454819Y-77676190D01*
X83454819Y-78009523D02*
X83978628Y-77676190D01*
X83978628Y-77676190D02*
X83454819Y-77342857D01*
X84454819Y-76485714D02*
X84454819Y-77057142D01*
X84454819Y-76771428D02*
X83454819Y-76771428D01*
X83454819Y-76771428D02*
X83597676Y-76866666D01*
X83597676Y-76866666D02*
X83692914Y-76961904D01*
X83692914Y-76961904D02*
X83740533Y-77057142D01*
X108883333Y-63979580D02*
X108835714Y-64027200D01*
X108835714Y-64027200D02*
X108692857Y-64074819D01*
X108692857Y-64074819D02*
X108597619Y-64074819D01*
X108597619Y-64074819D02*
X108454762Y-64027200D01*
X108454762Y-64027200D02*
X108359524Y-63931961D01*
X108359524Y-63931961D02*
X108311905Y-63836723D01*
X108311905Y-63836723D02*
X108264286Y-63646247D01*
X108264286Y-63646247D02*
X108264286Y-63503390D01*
X108264286Y-63503390D02*
X108311905Y-63312914D01*
X108311905Y-63312914D02*
X108359524Y-63217676D01*
X108359524Y-63217676D02*
X108454762Y-63122438D01*
X108454762Y-63122438D02*
X108597619Y-63074819D01*
X108597619Y-63074819D02*
X108692857Y-63074819D01*
X108692857Y-63074819D02*
X108835714Y-63122438D01*
X108835714Y-63122438D02*
X108883333Y-63170057D01*
X109740476Y-63408152D02*
X109740476Y-64074819D01*
X109502381Y-63027200D02*
X109264286Y-63741485D01*
X109264286Y-63741485D02*
X109883333Y-63741485D01*
X100979580Y-71066666D02*
X101027200Y-71114285D01*
X101027200Y-71114285D02*
X101074819Y-71257142D01*
X101074819Y-71257142D02*
X101074819Y-71352380D01*
X101074819Y-71352380D02*
X101027200Y-71495237D01*
X101027200Y-71495237D02*
X100931961Y-71590475D01*
X100931961Y-71590475D02*
X100836723Y-71638094D01*
X100836723Y-71638094D02*
X100646247Y-71685713D01*
X100646247Y-71685713D02*
X100503390Y-71685713D01*
X100503390Y-71685713D02*
X100312914Y-71638094D01*
X100312914Y-71638094D02*
X100217676Y-71590475D01*
X100217676Y-71590475D02*
X100122438Y-71495237D01*
X100122438Y-71495237D02*
X100074819Y-71352380D01*
X100074819Y-71352380D02*
X100074819Y-71257142D01*
X100074819Y-71257142D02*
X100122438Y-71114285D01*
X100122438Y-71114285D02*
X100170057Y-71066666D01*
X101074819Y-70114285D02*
X101074819Y-70685713D01*
X101074819Y-70399999D02*
X100074819Y-70399999D01*
X100074819Y-70399999D02*
X100217676Y-70495237D01*
X100217676Y-70495237D02*
X100312914Y-70590475D01*
X100312914Y-70590475D02*
X100360533Y-70685713D01*
X103983333Y-64079580D02*
X103935714Y-64127200D01*
X103935714Y-64127200D02*
X103792857Y-64174819D01*
X103792857Y-64174819D02*
X103697619Y-64174819D01*
X103697619Y-64174819D02*
X103554762Y-64127200D01*
X103554762Y-64127200D02*
X103459524Y-64031961D01*
X103459524Y-64031961D02*
X103411905Y-63936723D01*
X103411905Y-63936723D02*
X103364286Y-63746247D01*
X103364286Y-63746247D02*
X103364286Y-63603390D01*
X103364286Y-63603390D02*
X103411905Y-63412914D01*
X103411905Y-63412914D02*
X103459524Y-63317676D01*
X103459524Y-63317676D02*
X103554762Y-63222438D01*
X103554762Y-63222438D02*
X103697619Y-63174819D01*
X103697619Y-63174819D02*
X103792857Y-63174819D01*
X103792857Y-63174819D02*
X103935714Y-63222438D01*
X103935714Y-63222438D02*
X103983333Y-63270057D01*
X104364286Y-63270057D02*
X104411905Y-63222438D01*
X104411905Y-63222438D02*
X104507143Y-63174819D01*
X104507143Y-63174819D02*
X104745238Y-63174819D01*
X104745238Y-63174819D02*
X104840476Y-63222438D01*
X104840476Y-63222438D02*
X104888095Y-63270057D01*
X104888095Y-63270057D02*
X104935714Y-63365295D01*
X104935714Y-63365295D02*
X104935714Y-63460533D01*
X104935714Y-63460533D02*
X104888095Y-63603390D01*
X104888095Y-63603390D02*
X104316667Y-64174819D01*
X104316667Y-64174819D02*
X104935714Y-64174819D01*
X101104819Y-79279166D02*
X100628628Y-79612499D01*
X101104819Y-79850594D02*
X100104819Y-79850594D01*
X100104819Y-79850594D02*
X100104819Y-79469642D01*
X100104819Y-79469642D02*
X100152438Y-79374404D01*
X100152438Y-79374404D02*
X100200057Y-79326785D01*
X100200057Y-79326785D02*
X100295295Y-79279166D01*
X100295295Y-79279166D02*
X100438152Y-79279166D01*
X100438152Y-79279166D02*
X100533390Y-79326785D01*
X100533390Y-79326785D02*
X100581009Y-79374404D01*
X100581009Y-79374404D02*
X100628628Y-79469642D01*
X100628628Y-79469642D02*
X100628628Y-79850594D01*
X100104819Y-78422023D02*
X100104819Y-78612499D01*
X100104819Y-78612499D02*
X100152438Y-78707737D01*
X100152438Y-78707737D02*
X100200057Y-78755356D01*
X100200057Y-78755356D02*
X100342914Y-78850594D01*
X100342914Y-78850594D02*
X100533390Y-78898213D01*
X100533390Y-78898213D02*
X100914342Y-78898213D01*
X100914342Y-78898213D02*
X101009580Y-78850594D01*
X101009580Y-78850594D02*
X101057200Y-78802975D01*
X101057200Y-78802975D02*
X101104819Y-78707737D01*
X101104819Y-78707737D02*
X101104819Y-78517261D01*
X101104819Y-78517261D02*
X101057200Y-78422023D01*
X101057200Y-78422023D02*
X101009580Y-78374404D01*
X101009580Y-78374404D02*
X100914342Y-78326785D01*
X100914342Y-78326785D02*
X100676247Y-78326785D01*
X100676247Y-78326785D02*
X100581009Y-78374404D01*
X100581009Y-78374404D02*
X100533390Y-78422023D01*
X100533390Y-78422023D02*
X100485771Y-78517261D01*
X100485771Y-78517261D02*
X100485771Y-78707737D01*
X100485771Y-78707737D02*
X100533390Y-78802975D01*
X100533390Y-78802975D02*
X100581009Y-78850594D01*
X100581009Y-78850594D02*
X100676247Y-78898213D01*
X100979580Y-75016666D02*
X101027200Y-75064285D01*
X101027200Y-75064285D02*
X101074819Y-75207142D01*
X101074819Y-75207142D02*
X101074819Y-75302380D01*
X101074819Y-75302380D02*
X101027200Y-75445237D01*
X101027200Y-75445237D02*
X100931961Y-75540475D01*
X100931961Y-75540475D02*
X100836723Y-75588094D01*
X100836723Y-75588094D02*
X100646247Y-75635713D01*
X100646247Y-75635713D02*
X100503390Y-75635713D01*
X100503390Y-75635713D02*
X100312914Y-75588094D01*
X100312914Y-75588094D02*
X100217676Y-75540475D01*
X100217676Y-75540475D02*
X100122438Y-75445237D01*
X100122438Y-75445237D02*
X100074819Y-75302380D01*
X100074819Y-75302380D02*
X100074819Y-75207142D01*
X100074819Y-75207142D02*
X100122438Y-75064285D01*
X100122438Y-75064285D02*
X100170057Y-75016666D01*
X100074819Y-74111904D02*
X100074819Y-74588094D01*
X100074819Y-74588094D02*
X100551009Y-74635713D01*
X100551009Y-74635713D02*
X100503390Y-74588094D01*
X100503390Y-74588094D02*
X100455771Y-74492856D01*
X100455771Y-74492856D02*
X100455771Y-74254761D01*
X100455771Y-74254761D02*
X100503390Y-74159523D01*
X100503390Y-74159523D02*
X100551009Y-74111904D01*
X100551009Y-74111904D02*
X100646247Y-74064285D01*
X100646247Y-74064285D02*
X100884342Y-74064285D01*
X100884342Y-74064285D02*
X100979580Y-74111904D01*
X100979580Y-74111904D02*
X101027200Y-74159523D01*
X101027200Y-74159523D02*
X101074819Y-74254761D01*
X101074819Y-74254761D02*
X101074819Y-74492856D01*
X101074819Y-74492856D02*
X101027200Y-74588094D01*
X101027200Y-74588094D02*
X100979580Y-74635713D01*
X94438095Y-62754819D02*
X94438095Y-63564342D01*
X94438095Y-63564342D02*
X94485714Y-63659580D01*
X94485714Y-63659580D02*
X94533333Y-63707200D01*
X94533333Y-63707200D02*
X94628571Y-63754819D01*
X94628571Y-63754819D02*
X94819047Y-63754819D01*
X94819047Y-63754819D02*
X94914285Y-63707200D01*
X94914285Y-63707200D02*
X94961904Y-63659580D01*
X94961904Y-63659580D02*
X95009523Y-63564342D01*
X95009523Y-63564342D02*
X95009523Y-62754819D01*
X95390476Y-62754819D02*
X96009523Y-62754819D01*
X96009523Y-62754819D02*
X95676190Y-63135771D01*
X95676190Y-63135771D02*
X95819047Y-63135771D01*
X95819047Y-63135771D02*
X95914285Y-63183390D01*
X95914285Y-63183390D02*
X95961904Y-63231009D01*
X95961904Y-63231009D02*
X96009523Y-63326247D01*
X96009523Y-63326247D02*
X96009523Y-63564342D01*
X96009523Y-63564342D02*
X95961904Y-63659580D01*
X95961904Y-63659580D02*
X95914285Y-63707200D01*
X95914285Y-63707200D02*
X95819047Y-63754819D01*
X95819047Y-63754819D02*
X95533333Y-63754819D01*
X95533333Y-63754819D02*
X95438095Y-63707200D01*
X95438095Y-63707200D02*
X95390476Y-63659580D01*
X114133333Y-64104819D02*
X113800000Y-63628628D01*
X113561905Y-64104819D02*
X113561905Y-63104819D01*
X113561905Y-63104819D02*
X113942857Y-63104819D01*
X113942857Y-63104819D02*
X114038095Y-63152438D01*
X114038095Y-63152438D02*
X114085714Y-63200057D01*
X114085714Y-63200057D02*
X114133333Y-63295295D01*
X114133333Y-63295295D02*
X114133333Y-63438152D01*
X114133333Y-63438152D02*
X114085714Y-63533390D01*
X114085714Y-63533390D02*
X114038095Y-63581009D01*
X114038095Y-63581009D02*
X113942857Y-63628628D01*
X113942857Y-63628628D02*
X113561905Y-63628628D01*
X115038095Y-63104819D02*
X114561905Y-63104819D01*
X114561905Y-63104819D02*
X114514286Y-63581009D01*
X114514286Y-63581009D02*
X114561905Y-63533390D01*
X114561905Y-63533390D02*
X114657143Y-63485771D01*
X114657143Y-63485771D02*
X114895238Y-63485771D01*
X114895238Y-63485771D02*
X114990476Y-63533390D01*
X114990476Y-63533390D02*
X115038095Y-63581009D01*
X115038095Y-63581009D02*
X115085714Y-63676247D01*
X115085714Y-63676247D02*
X115085714Y-63914342D01*
X115085714Y-63914342D02*
X115038095Y-64009580D01*
X115038095Y-64009580D02*
X114990476Y-64057200D01*
X114990476Y-64057200D02*
X114895238Y-64104819D01*
X114895238Y-64104819D02*
X114657143Y-64104819D01*
X114657143Y-64104819D02*
X114561905Y-64057200D01*
X114561905Y-64057200D02*
X114514286Y-64009580D01*
X126066666Y-77674819D02*
X126066666Y-78389104D01*
X126066666Y-78389104D02*
X126019047Y-78531961D01*
X126019047Y-78531961D02*
X125923809Y-78627200D01*
X125923809Y-78627200D02*
X125780952Y-78674819D01*
X125780952Y-78674819D02*
X125685714Y-78674819D01*
X127066666Y-78674819D02*
X126495238Y-78674819D01*
X126780952Y-78674819D02*
X126780952Y-77674819D01*
X126780952Y-77674819D02*
X126685714Y-77817676D01*
X126685714Y-77817676D02*
X126590476Y-77912914D01*
X126590476Y-77912914D02*
X126495238Y-77960533D01*
X101104819Y-83366666D02*
X100628628Y-83699999D01*
X101104819Y-83938094D02*
X100104819Y-83938094D01*
X100104819Y-83938094D02*
X100104819Y-83557142D01*
X100104819Y-83557142D02*
X100152438Y-83461904D01*
X100152438Y-83461904D02*
X100200057Y-83414285D01*
X100200057Y-83414285D02*
X100295295Y-83366666D01*
X100295295Y-83366666D02*
X100438152Y-83366666D01*
X100438152Y-83366666D02*
X100533390Y-83414285D01*
X100533390Y-83414285D02*
X100581009Y-83461904D01*
X100581009Y-83461904D02*
X100628628Y-83557142D01*
X100628628Y-83557142D02*
X100628628Y-83938094D01*
X101104819Y-82414285D02*
X101104819Y-82985713D01*
X101104819Y-82699999D02*
X100104819Y-82699999D01*
X100104819Y-82699999D02*
X100247676Y-82795237D01*
X100247676Y-82795237D02*
X100342914Y-82890475D01*
X100342914Y-82890475D02*
X100390533Y-82985713D01*
%TO.C,R2*%
D12*
X120365000Y-80139564D02*
X120365000Y-79685436D01*
X121835000Y-80139564D02*
X121835000Y-79685436D01*
%TO.C,Y2*%
X111840000Y-86360000D02*
X119210000Y-86360000D01*
X119210000Y-82640000D02*
X111840000Y-82640000D01*
X119210000Y-86360000D02*
X119210000Y-82640000D01*
%TO.C,D1*%
X118662500Y-66360000D02*
X121347500Y-66360000D01*
X121347500Y-64440000D02*
X118662500Y-64440000D01*
X121347500Y-66360000D02*
X121347500Y-64440000D01*
%TO.C,D2*%
X84940000Y-83600000D02*
X84940000Y-86285000D01*
X84940000Y-86285000D02*
X86860000Y-86285000D01*
X86860000Y-86285000D02*
X86860000Y-83600000D01*
%TO.C,R4*%
X120265000Y-69739564D02*
X120265000Y-69285436D01*
X121735000Y-69739564D02*
X121735000Y-69285436D01*
%TO.C,BT1*%
X84920000Y-65445000D02*
X86300000Y-65445000D01*
X84920000Y-66825000D02*
X84920000Y-65445000D01*
X84920000Y-68095000D02*
X84920000Y-70745000D01*
X84920000Y-68095000D02*
X87680000Y-68095000D01*
X84920000Y-70745000D02*
X87680000Y-70745000D01*
X87680000Y-68095000D02*
X87680000Y-70745000D01*
%TO.C,U1*%
D13*
X108900000Y-72300000D02*
X115700000Y-72300000D01*
X108900000Y-79100000D02*
X108900000Y-72300000D01*
X115700000Y-72300000D02*
X115700000Y-79100000D01*
X115700000Y-79100000D02*
X108900000Y-79100000D01*
D14*
X107927000Y-71950000D02*
G75*
G02*
X107673000Y-71950000I-127000J0D01*
G01*
X107673000Y-71950000D02*
G75*
G02*
X107927000Y-71950000I127000J0D01*
G01*
D13*
X109916000Y-72956800D02*
G75*
G02*
X109197600Y-72956800I-359200J0D01*
G01*
X109197600Y-72956800D02*
G75*
G02*
X109916000Y-72956800I359200J0D01*
G01*
%TO.C,J4*%
D12*
X124120000Y-68320000D02*
X125500000Y-68320000D01*
X124120000Y-69700000D02*
X124120000Y-68320000D01*
X124120000Y-70970000D02*
X124120000Y-76160000D01*
X124120000Y-70970000D02*
X126770000Y-70970000D01*
X124120000Y-76160000D02*
X129420000Y-76160000D01*
X126770000Y-68320000D02*
X129420000Y-68320000D01*
X126770000Y-70970000D02*
X126770000Y-68320000D01*
X129420000Y-68320000D02*
X129420000Y-76160000D01*
%TO.C,C3*%
X106565000Y-84161252D02*
X106565000Y-83638748D01*
X108035000Y-84161252D02*
X108035000Y-83638748D01*
%TO.C,U2*%
D15*
X93200000Y-80080000D02*
X97200000Y-80080000D01*
X93200000Y-85120000D02*
X97200000Y-85120000D01*
D16*
X90855000Y-80105000D02*
G75*
G02*
X90655000Y-80105000I-100000J0D01*
G01*
X90655000Y-80105000D02*
G75*
G02*
X90855000Y-80105000I100000J0D01*
G01*
%TO.C,J2*%
D12*
X111520000Y-90680000D02*
X111520000Y-89300000D01*
X112900000Y-90680000D02*
X111520000Y-90680000D01*
X114170000Y-87920000D02*
X121900000Y-87920000D01*
X114170000Y-90680000D02*
X114170000Y-87920000D01*
X114170000Y-90680000D02*
X121900000Y-90680000D01*
X121900000Y-90680000D02*
X121900000Y-87920000D01*
%TO.C,U4*%
X92240000Y-71640000D02*
X97760000Y-71640000D01*
X92240000Y-71910000D02*
X92240000Y-71640000D01*
X92240000Y-77160000D02*
X92240000Y-76890000D01*
X97760000Y-71640000D02*
X97760000Y-71910000D01*
X97760000Y-76890000D02*
X97760000Y-77160000D01*
X97760000Y-77160000D02*
X92240000Y-77160000D01*
X91410000Y-71900000D02*
X91070000Y-71430000D01*
X91750000Y-71430000D01*
X91410000Y-71900000D01*
G36*
X91410000Y-71900000D02*
G01*
X91070000Y-71430000D01*
X91750000Y-71430000D01*
X91410000Y-71900000D01*
G37*
%TO.C,J3*%
X86520000Y-90980000D02*
X86520000Y-89600000D01*
X87900000Y-90980000D02*
X86520000Y-90980000D01*
X89170000Y-88220000D02*
X109600000Y-88220000D01*
X89170000Y-90980000D02*
X89170000Y-88220000D01*
X89170000Y-90980000D02*
X109600000Y-90980000D01*
X109600000Y-90980000D02*
X109600000Y-88220000D01*
%TO.C,R3*%
X120365000Y-74839564D02*
X120365000Y-74385436D01*
X121835000Y-74839564D02*
X121835000Y-74385436D01*
%TO.C,R7*%
X89065000Y-84814564D02*
X89065000Y-84360436D01*
X90535000Y-84814564D02*
X90535000Y-84360436D01*
%TO.C,Y1*%
X84940000Y-74440000D02*
X84940000Y-81810000D01*
X84940000Y-81810000D02*
X88660000Y-81810000D01*
X88660000Y-81810000D02*
X88660000Y-74440000D01*
%TO.C,C4*%
X108788748Y-64565000D02*
X109311252Y-64565000D01*
X108788748Y-66035000D02*
X109311252Y-66035000D01*
%TO.C,C1*%
X101565000Y-71161252D02*
X101565000Y-70638748D01*
X103035000Y-71161252D02*
X103035000Y-70638748D01*
%TO.C,C2*%
X103888748Y-64665000D02*
X104411252Y-64665000D01*
X103888748Y-66135000D02*
X104411252Y-66135000D01*
%TO.C,R6*%
X101565000Y-79339564D02*
X101565000Y-78885436D01*
X103035000Y-79339564D02*
X103035000Y-78885436D01*
%TO.C,C5*%
X101565000Y-75111252D02*
X101565000Y-74588748D01*
X103035000Y-75111252D02*
X103035000Y-74588748D01*
%TO.C,U3*%
X92440000Y-64140000D02*
X97960000Y-64140000D01*
X92440000Y-64410000D02*
X92440000Y-64140000D01*
X92440000Y-69660000D02*
X92440000Y-69390000D01*
X97960000Y-64140000D02*
X97960000Y-64410000D01*
X97960000Y-69390000D02*
X97960000Y-69660000D01*
X97960000Y-69660000D02*
X92440000Y-69660000D01*
X91610000Y-64400000D02*
X91270000Y-63930000D01*
X91950000Y-63930000D01*
X91610000Y-64400000D01*
G36*
X91610000Y-64400000D02*
G01*
X91270000Y-63930000D01*
X91950000Y-63930000D01*
X91610000Y-64400000D01*
G37*
%TO.C,R5*%
X114072936Y-64565000D02*
X114527064Y-64565000D01*
X114072936Y-66035000D02*
X114527064Y-66035000D01*
%TO.C,J1*%
X125020000Y-79220000D02*
X126400000Y-79220000D01*
X125020000Y-80600000D02*
X125020000Y-79220000D01*
X125020000Y-81870000D02*
X125020000Y-89600000D01*
X125020000Y-81870000D02*
X127780000Y-81870000D01*
X125020000Y-89600000D02*
X127780000Y-89600000D01*
X127780000Y-81870000D02*
X127780000Y-89600000D01*
%TO.C,R1*%
X101565000Y-83427064D02*
X101565000Y-82972936D01*
X103035000Y-83427064D02*
X103035000Y-82972936D01*
%TD*%
M02*
